G04 ================== begin FILE IDENTIFICATION RECORD ==================*
G04 Layout Name:  E:/diansai/Monika1/monika_pcb4/monika.brd*
G04 Film Name:    BOTTOM*
G04 File Format:  Gerber RS274X*
G04 File Origin:  Cadence Allegro 16.6-2015-S108*
G04 Origin Date:  Tue May 04 15:16:23 2021*
G04 *
G04 Layer:  ETCH/BOTTOM*
G04 Layer:  PIN/BOTTOM*
G04 Layer:  VIA CLASS/BOTTOM*
G04 *
G04 Offset:    (0.000 0.000)*
G04 Mirror:    No*
G04 Mode:      Positive*
G04 Rotation:  0*
G04 FullContactRelief:  No*
G04 UndefLineWidth:     6.000*
G04 ================== end FILE IDENTIFICATION RECORD ====================*
%FSLAX25Y25*MOIN*%
%IR0*IPPOS*OFA0.00000B0.00000*MIA0B0*SFA1.00000B1.00000*%
%ADD11C,.126*%
%ADD19C,.177165*%
%ADD10C,.023622*%
%ADD17R,.02126X.025197*%
%ADD15R,.033465X.037402*%
%ADD16R,.037402X.033465*%
%ADD18O,.041339X.080709*%
%ADD12C,.062992*%
%ADD14C,.019685*%
%ADD13R,.062992X.062992*%
%ADD20C,.006*%
%ADD21C,.012*%
%ADD22C,.024*%
%ADD23C,.018*%
%ADD36R,.072996X.072996*%
%ADD26R,.074996X.074996*%
%ADD32C,.136004*%
%ADD27C,.18717*%
%ADD37O,.051342X.090712*%
%ADD28C,.03169*%
%ADD38O,.051344X.090714*%
%ADD30R,.047406X.04347*%
%ADD29R,.049406X.04547*%
%ADD35R,.043468X.047406*%
%ADD33R,.047406X.043468*%
%ADD24C,.072996*%
%ADD25C,.074996*%
%ADD34R,.045468X.049406*%
%ADD31R,.049406X.045468*%
G75*
%LPD*%
G75*
G36*
G01X320780Y146680D02*
Y-154620D01*
X-63220D01*
Y229380D01*
X293180D01*
Y152180D01*
G03X298680Y146680I5500J0D01*
G01X320780D01*
G37*
%LPC*%
G75*
G36*
G01X271048Y-149737D02*
X267922D01*
Y-145900D01*
X267822D01*
Y-142180D01*
X268284D01*
Y-134074D01*
G02X270685I1200J1034D01*
G01Y-142180D01*
X271148D01*
Y-145900D01*
X271048D01*
Y-149737D01*
G37*
G36*
G01X274985D02*
X271858D01*
Y-145900D01*
X271758D01*
Y-142180D01*
X272222D01*
Y-134074D01*
G02X274622I1200J1034D01*
G01Y-142180D01*
X275085D01*
Y-145900D01*
X274985D01*
Y-149737D01*
G37*
G36*
G01X178065Y1304D02*
G02X176265I-900J-1304D01*
G01Y17820D01*
X170854D01*
Y13988D01*
X167728D01*
Y17825D01*
X167628D01*
Y21545D01*
X170525D01*
X170670Y21690D01*
X171565D01*
Y29419D01*
X171665D01*
Y33130D01*
X163090D01*
X163060Y33100D01*
X162587Y33573D01*
X159754D01*
Y37293D01*
X159854D01*
Y40786D01*
X159850Y40790D01*
Y41700D01*
X159854Y41704D01*
Y45384D01*
X159754D01*
Y49104D01*
X162210D01*
Y49210D01*
X172480D01*
X172686Y49004D01*
X174791D01*
Y45167D01*
X174891D01*
Y37510D01*
X174790D01*
Y36993D01*
X174791D01*
Y33673D01*
X174790D01*
Y33256D01*
X174791D01*
Y29560D01*
X182730D01*
X183600Y28690D01*
Y21445D01*
X186602D01*
Y17608D01*
X186702D01*
Y13888D01*
X183600D01*
Y13690D01*
X183400Y13490D01*
X178065D01*
Y1304D01*
G37*
G36*
G01X155106Y13988D02*
X151980D01*
Y17825D01*
X151880D01*
Y21545D01*
X155206D01*
Y17825D01*
X155106D01*
Y13988D01*
G37*
G36*
G01X198413D02*
X195287D01*
Y17825D01*
X195187D01*
Y21545D01*
X198513D01*
Y17825D01*
X198413D01*
Y13988D01*
G37*
G36*
G01X147232Y21862D02*
X144106D01*
Y25699D01*
X144006D01*
Y29419D01*
X147332D01*
Y25699D01*
X147232D01*
Y21862D01*
G37*
G36*
G01X210224Y29736D02*
X207098D01*
Y33573D01*
X206998D01*
Y37293D01*
X207098D01*
Y41447D01*
X206998D01*
Y45167D01*
X207098D01*
Y49321D01*
X206998D01*
Y53041D01*
X210324D01*
Y49321D01*
X210224D01*
Y45167D01*
X210324D01*
Y41447D01*
X210224D01*
Y37293D01*
X210324D01*
Y33573D01*
X210224D01*
Y29736D01*
G37*
G36*
G01X147232Y45484D02*
X144106D01*
Y49321D01*
X144006D01*
Y53041D01*
X147332D01*
Y49321D01*
X147232D01*
Y45484D01*
G37*
G36*
G01X186702Y53258D02*
X183376D01*
Y53270D01*
X182300D01*
X182212Y53358D01*
X179539D01*
Y57195D01*
X179439D01*
Y64852D01*
X179539D01*
Y68689D01*
X182269D01*
X182300Y68720D01*
X187313D01*
Y68789D01*
X190639D01*
Y68720D01*
X191250D01*
Y68789D01*
X194576D01*
Y68729D01*
X195287D01*
Y72943D01*
X195187D01*
Y75193D01*
X192013Y78367D01*
Y97121D01*
G02X193813I900J1304D01*
G01Y79113D01*
X196263Y76663D01*
X198513D01*
Y76640D01*
X202280D01*
X202490Y76430D01*
Y72066D01*
X236033D01*
Y75108D01*
X237303D01*
Y77561D01*
X236033D01*
Y82108D01*
X240974D01*
Y77561D01*
X239704D01*
Y75108D01*
X240974D01*
Y70561D01*
X237928D01*
X237050Y69684D01*
Y68729D01*
X237281D01*
X238776Y67234D01*
X240974D01*
Y62687D01*
X240304D01*
Y60234D01*
X240974D01*
Y55687D01*
X236033D01*
Y60234D01*
X236703D01*
Y62687D01*
X236033D01*
Y64885D01*
X235789Y65129D01*
X210324D01*
Y61132D01*
X210224D01*
Y57295D01*
X207098D01*
Y61132D01*
X206998D01*
Y65129D01*
X194576D01*
Y65069D01*
X194476D01*
Y60915D01*
X194576D01*
Y57195D01*
X194476D01*
Y53358D01*
X191878D01*
X191790Y53270D01*
X190639D01*
Y53258D01*
X187313D01*
Y53270D01*
X186702D01*
Y53258D01*
G37*
G36*
G01X147232Y57295D02*
X144106D01*
Y61132D01*
X144006D01*
Y64852D01*
X147332D01*
Y61132D01*
X147232D01*
Y57295D01*
G37*
G36*
G01X186702Y72943D02*
X183376D01*
Y84537D01*
X183476D01*
Y88374D01*
X186602D01*
Y84580D01*
X187820D01*
X187863Y84537D01*
X190639D01*
Y76880D01*
X188220D01*
Y76780D01*
X186702D01*
Y72943D01*
G37*
G36*
G01X147232Y73043D02*
X144106D01*
Y76880D01*
X144006D01*
Y80600D01*
X144469D01*
Y101619D01*
X143396D01*
Y102889D01*
X139942D01*
Y101619D01*
X135396D01*
Y106560D01*
X139942D01*
Y105290D01*
X143396D01*
Y106560D01*
X147942D01*
Y101619D01*
X146869D01*
Y89010D01*
X148010D01*
X148646Y88374D01*
X151169D01*
Y84537D01*
X151269D01*
Y80817D01*
X147677D01*
X147332Y80472D01*
Y76880D01*
X147232D01*
Y73043D01*
G37*
G36*
G01X210324Y80817D02*
X206998D01*
Y84537D01*
X207098D01*
Y88374D01*
X210224D01*
Y84537D01*
X210324D01*
Y80817D01*
G37*
G36*
G01X171796Y-124613D02*
Y-107377D01*
X158528Y-94109D01*
X158501Y-94095D01*
G02X160636Y-91960I727J1408D01*
G01X160650Y-91988D01*
X174797Y-106134D01*
Y-124613D01*
G02X169860Y-129550I-1500J-3437D01*
G01X146698D01*
Y-133983D01*
X141758D01*
Y-130378D01*
G03X141075Y-130095I-400J0D01*
G01X139612Y-131558D01*
Y-133983D01*
X134671D01*
Y-133210D01*
X132612D01*
Y-133983D01*
X127671D01*
Y-129437D01*
X128641D01*
Y-126967D01*
X115508Y-113833D01*
X115388Y-113875D01*
G02X117671Y-111592I-1252J3535D01*
G01X117629Y-111712D01*
X131642Y-125724D01*
Y-129437D01*
X132612D01*
Y-130210D01*
X134671D01*
Y-129437D01*
X137490D01*
X140377Y-126550D01*
X169860D01*
G02X171796Y-124613I3437J-1500D01*
G37*
G36*
G01X19056Y-121186D02*
X26272Y-113970D01*
X33687D01*
X41230Y-106427D01*
Y-93767D01*
X109977Y-25020D01*
X118363D01*
X120441Y-27098D01*
Y-28347D01*
X120738D01*
X140832Y-8252D01*
Y6570D01*
G02X140692Y6679I900J1304D01*
G03X140360Y6528I-131J-151D01*
G01Y1230D01*
X122011Y-17120D01*
Y-20393D01*
X120441D01*
Y-21672D01*
X118093Y-24020D01*
X109273D01*
X37913Y-95380D01*
X24534D01*
X20329Y-99585D01*
X20341Y-99682D01*
G02X18960Y-98300I-1573J-191D01*
G01X19056Y-98312D01*
X23788Y-93580D01*
X37167D01*
X108527Y-22220D01*
X117347D01*
X118640Y-20927D01*
Y-20393D01*
X117070D01*
Y-15847D01*
X120738D01*
X138560Y1976D01*
Y9913D01*
X141358Y12711D01*
X144365D01*
G02Y10911I1304J-900D01*
G01X142104D01*
X141331Y10138D01*
G03X141638Y9456I283J-283D01*
G02X142632Y6570I94J-1582D01*
G01Y-8998D01*
X122011Y-29620D01*
Y-32893D01*
X117070D01*
Y-28347D01*
X118640D01*
Y-27843D01*
X117617Y-26820D01*
X110723D01*
X43030Y-94513D01*
Y-107173D01*
X34433Y-115770D01*
X27018D01*
X20329Y-122459D01*
X20341Y-122556D01*
G02X18960Y-121174I-1573J-191D01*
G01X19056Y-121186D01*
G37*
G36*
G01X49056D02*
X55150Y-115092D01*
Y-88387D01*
X97997Y-45540D01*
X118423D01*
X120441Y-47558D01*
Y-48847D01*
X120738D01*
X148706Y-20878D01*
Y6570D01*
G02X150506I900J1304D01*
G01Y-21624D01*
X122011Y-50120D01*
Y-53393D01*
X117070D01*
Y-48847D01*
X118640D01*
Y-48303D01*
X117677Y-47340D01*
X98743D01*
X56950Y-89133D01*
Y-115838D01*
X50329Y-122459D01*
X50341Y-122556D01*
G02X48960Y-121174I-1573J-191D01*
G01X49056Y-121186D01*
G37*
G36*
G01X120738Y-36347D02*
X144769Y-12315D01*
Y6570D01*
G02X146569I900J1304D01*
G01Y-13061D01*
X122011Y-37620D01*
Y-40893D01*
X120441D01*
Y-42122D01*
X118223Y-44340D01*
X97543D01*
X49668Y-92215D01*
Y-98569D01*
G02X47868I-900J-1304D01*
G01Y-91469D01*
X96797Y-42540D01*
X117477D01*
X118640Y-41377D01*
Y-40893D01*
X117070D01*
Y-36347D01*
X120738D01*
G37*
G36*
G01X171068Y-42154D02*
Y-46701D01*
X166128D01*
Y-42154D01*
X167398D01*
Y-39701D01*
X166128D01*
Y-35154D01*
X167398D01*
Y-32701D01*
X166128D01*
Y-31627D01*
X163871D01*
Y-32898D01*
X159325D01*
Y-27957D01*
X163871D01*
Y-29227D01*
X166128D01*
Y-28154D01*
X167398D01*
Y-25698D01*
X166128D01*
Y-21151D01*
X171068D01*
Y-25698D01*
X169798D01*
Y-28154D01*
X171068D01*
Y-32701D01*
X169798D01*
Y-35154D01*
X171068D01*
Y-39701D01*
X169798D01*
Y-42154D01*
X171068D01*
G37*
G36*
G01X178155D02*
Y-46701D01*
X173214D01*
Y-42154D01*
X174484D01*
Y-39701D01*
X173214D01*
Y-35154D01*
X174484D01*
Y-32701D01*
X173214D01*
Y-28154D01*
X174484D01*
Y-25698D01*
X173214D01*
Y-21151D01*
X178155D01*
Y-25698D01*
X176885D01*
Y-28154D01*
X178155D01*
Y-29227D01*
X180411D01*
Y-27957D01*
X184958D01*
Y-32898D01*
X180411D01*
Y-31627D01*
X178155D01*
Y-32701D01*
X176885D01*
Y-35154D01*
X178155D01*
Y-39701D01*
X176885D01*
Y-42154D01*
X178155D01*
G37*
G36*
G01X153831Y1561D02*
X156580Y4310D01*
Y25699D01*
X156160D01*
Y25580D01*
X154930D01*
X154711Y25799D01*
X151980D01*
Y29636D01*
X151880D01*
Y33356D01*
X155206D01*
Y33320D01*
X156110D01*
X156174Y33256D01*
X159043D01*
Y29419D01*
X159143D01*
Y25699D01*
X158380D01*
Y3564D01*
X155104Y288D01*
X155116Y191D01*
G02X153734Y1573I-1573J-191D01*
G01X153831Y1561D01*
G37*
G36*
G01X195289Y288D02*
X192013Y3564D01*
Y23995D01*
X195187Y27169D01*
Y29419D01*
X195287D01*
Y33256D01*
X198066D01*
X198140Y33330D01*
X199124D01*
Y33356D01*
X202450D01*
Y29636D01*
X202350D01*
Y25799D01*
X200109D01*
X199980Y25670D01*
X198180D01*
X198151Y25699D01*
X196263D01*
X193813Y23249D01*
Y4310D01*
X196562Y1561D01*
X196659Y1573D01*
G02X195277Y191I191J-1573D01*
G01X195289Y288D01*
G37*
G36*
G01X192113Y33573D02*
X192020Y33480D01*
X181990D01*
Y33573D01*
X179439D01*
Y37293D01*
X179539D01*
Y41447D01*
X179439D01*
Y45167D01*
X179539D01*
Y49004D01*
X182194D01*
X182270Y49080D01*
X183376D01*
Y49104D01*
X186702D01*
Y49080D01*
X191970D01*
X192000Y49110D01*
X192106Y49004D01*
X194476D01*
Y45167D01*
X194576D01*
Y41447D01*
X194476D01*
Y37293D01*
X194576D01*
Y33573D01*
X192113D01*
G37*
G36*
G01X167017Y53258D02*
X163691D01*
Y53360D01*
X162980D01*
Y53358D01*
X159854D01*
Y57195D01*
X159754D01*
Y60915D01*
X159854D01*
Y65069D01*
X159754D01*
Y68789D01*
X161520D01*
Y68820D01*
X174390D01*
X174521Y68689D01*
X174791D01*
Y64852D01*
X174891D01*
Y57195D01*
X174720D01*
Y56678D01*
X174791D01*
Y53358D01*
X171665D01*
Y53360D01*
X170854D01*
Y53358D01*
X167728D01*
Y53360D01*
X167017D01*
Y53258D01*
G37*
G36*
G01X26005Y59077D02*
X54632D01*
X57597Y56112D01*
X57666Y56104D01*
G02X55908Y54346I-184J-1574D01*
G01X55900Y54415D01*
X53638Y56676D01*
X26005D01*
G02X23936I-1035J1200D01*
G01X1921D01*
Y55406D01*
X-2626D01*
Y56676D01*
X-6079D01*
Y55406D01*
X-10626D01*
Y56676D01*
X-14079D01*
Y55406D01*
X-18626D01*
Y60347D01*
X-14079D01*
Y59077D01*
X-10626D01*
Y60347D01*
X-6079D01*
Y59077D01*
X-2626D01*
Y60347D01*
X1921D01*
Y59077D01*
X23936D01*
G02X26005I1035J-1200D01*
G37*
G36*
G01X155206Y69020D02*
Y69006D01*
X151880D01*
Y72726D01*
X151980D01*
Y76563D01*
X154340D01*
Y76660D01*
X155817D01*
Y76663D01*
X156580D01*
Y97121D01*
G02X158380I900J1304D01*
G01Y76663D01*
X159143D01*
Y72943D01*
X159043D01*
Y69106D01*
X156686D01*
X156600Y69020D01*
X155206D01*
G37*
G36*
G01X24640Y189853D02*
X28653Y185840D01*
X36743D01*
X43950Y178633D01*
Y149873D01*
X54263Y139560D01*
X169883D01*
X182002Y127441D01*
Y80044D01*
G02X180202I-900J-1304D01*
G01Y126695D01*
X169137Y137760D01*
X53517D01*
X42150Y149127D01*
Y177887D01*
X35997Y184040D01*
X27907D01*
X22840Y189107D01*
Y193957D01*
X21270D01*
Y195330D01*
X17383D01*
X17341Y195186D01*
G02Y197274I-3601J1044D01*
G01X17383Y197130D01*
X21270D01*
Y198503D01*
X26210D01*
Y193957D01*
X24640D01*
Y189853D01*
G37*
G36*
G01Y145913D02*
X34583Y135970D01*
X140223D01*
X178065Y98128D01*
Y83981D01*
G02X177087Y81094I-900J-1304D01*
G01X176999Y81099D01*
X176730Y80830D01*
X170954D01*
Y80817D01*
X167628D01*
Y84537D01*
X167728D01*
Y88374D01*
X170400D01*
Y88430D01*
X171565D01*
Y88474D01*
X174891D01*
Y88430D01*
X176265D01*
Y97382D01*
X139477Y134170D01*
X33837D01*
X22840Y145167D01*
Y163957D01*
X21270D01*
Y165330D01*
X17383D01*
X17341Y165186D01*
G02Y167274I-3601J1044D01*
G01X17383Y167130D01*
X21270D01*
Y168503D01*
X26210D01*
Y163957D01*
X24640D01*
Y145913D01*
G37*
G36*
G01X14903Y118060D02*
X27503Y105460D01*
X92363D01*
X110309Y87514D01*
X140428D01*
G02Y85714I1304J-900D01*
G01X109563D01*
X91617Y103660D01*
X26757D01*
X13630Y116787D01*
X13498Y116715D01*
G02X14975Y118192I-1808J3285D01*
G01X14903Y118060D01*
G37*
G36*
G01X185939Y130124D02*
Y91855D01*
G02X184139I-900J-1304D01*
G01Y129378D01*
X137007Y176510D01*
X131073D01*
G02Y178310I-1304J900D01*
G01X137753D01*
X185939Y130124D01*
G37*
G36*
G01X123942Y102290D02*
Y101619D01*
X119396D01*
Y106560D01*
X123942D01*
Y105890D01*
X127396D01*
Y106560D01*
X131942D01*
Y101619D01*
X127396D01*
Y102290D01*
X123942D01*
G37*
G36*
G01X131942Y113647D02*
Y108706D01*
X127396D01*
Y113647D01*
X128169D01*
Y121230D01*
X121039Y128360D01*
X-7799D01*
X-7829Y128350D01*
G02Y131370I-481J1510D01*
G01X-7799Y131360D01*
X122281D01*
X131169Y122472D01*
Y113647D01*
X131942D01*
G37*
G36*
G01X201034Y171547D02*
Y167000D01*
X196093D01*
Y171547D01*
X197063D01*
Y175000D01*
X196093D01*
Y179547D01*
X197063D01*
Y183000D01*
X196093D01*
Y187547D01*
X197063D01*
Y193945D01*
X209040Y205921D01*
Y209479D01*
X209030Y209509D01*
G02X212050I1510J481D01*
G01X212040Y209479D01*
Y204679D01*
X200064Y192702D01*
Y187547D01*
X201034D01*
Y183000D01*
X200064D01*
Y179547D01*
X201034D01*
Y175000D01*
X200064D01*
Y171547D01*
X201034D01*
G37*
G36*
G01X122011Y-9393D02*
X117070D01*
Y-4847D01*
X122011D01*
Y-6220D01*
X123847D01*
X127440Y-2627D01*
Y10603D01*
X136234Y19397D01*
X136222Y19494D01*
G02X136213Y19773I1573J192D01*
G03X135531Y20078I-399J22D01*
G01X125780Y10327D01*
Y8650D01*
X122011Y4880D01*
Y1607D01*
X117070D01*
Y6153D01*
X120738D01*
X123980Y9396D01*
Y11073D01*
X134266Y21359D01*
G03X133958Y22041I-283J283D01*
G02X132760Y22480I-99J1581D01*
G03X132199Y22475I-277J-288D01*
G01X126444Y16720D01*
X8167D01*
X-11812Y36699D01*
Y39999D01*
G02X-10512Y42836I900J1304D01*
G03X-10012Y43223I101J387D01*
G01Y44130D01*
G02X-9863Y44441I400J0D01*
G03X-9760Y44936I-252J311D01*
G02X-7348Y46889I1407J728D01*
G03X-6694Y47198I254J309D01*
G01Y48699D01*
G02X-4894I900J1304D01*
G01Y47198D01*
G03X-4240Y46889I400J0D01*
G02X-2334Y44360I1005J-1225D01*
G01Y41438D01*
X2770Y36333D01*
X79201D01*
Y41308D01*
X83747D01*
Y36333D01*
X95106D01*
Y41308D01*
X96179D01*
Y43352D01*
X93276Y46256D01*
X93207Y46264D01*
G02X94965Y48022I185J1574D01*
G01X94973Y47953D01*
X98580Y44346D01*
Y41308D01*
X99653D01*
Y36333D01*
X132554D01*
G02Y34533I1304J-900D01*
G01X2024D01*
X-4135Y40692D01*
Y44360D01*
G02X-4240Y44439I899J1305D01*
G03X-4894Y44130I-254J-309D01*
G01Y40197D01*
X8743Y26560D01*
X127649D01*
X132297Y31208D01*
X132285Y31305D01*
G02X133667Y29923I1573J191D01*
G01X133570Y29935D01*
X133458Y29823D01*
G03X133764Y29141I283J-283D01*
G02X133667Y25986I94J-1582D01*
G01X133570Y25998D01*
X133458Y25886D01*
G03X133764Y25204I283J-283D01*
G02X135439Y23522I94J-1582D01*
G03X136121Y23214I399J-25D01*
G01X136895Y23988D01*
Y26255D01*
G02X138695I900J1304D01*
G01Y23242D01*
X137402Y21949D01*
G03X137707Y21267I283J-283D01*
G02X137604Y18112I88J-1582D01*
G01X137507Y18124D01*
X129240Y9857D01*
Y-3373D01*
X124593Y-8020D01*
X122011D01*
Y-9393D01*
G37*
G54D36*
X-18310Y120000D03*
G54D26*
X312000Y-76273D03*
X259842Y137795D03*
X236250Y120000D03*
X232000Y-140000D03*
X183297Y-128050D03*
X118110Y157480D03*
X82677Y-35433D03*
X60000Y120000D03*
X13740Y156230D03*
X-11811Y157480D03*
X-22000Y-140000D03*
X-41030Y66420D03*
G54D32*
X210250Y120000D03*
Y-134560D03*
X-44310Y120000D03*
Y-134560D03*
G54D27*
X307000Y132900D03*
Y-95446D03*
G54D37*
X254426Y-147607D03*
Y-133040D03*
G54D28*
X263740Y179890D03*
Y155481D03*
X260938Y-118040D03*
X258740Y199990D03*
X253740Y179890D03*
X258740D03*
X253740Y155481D03*
X258740D03*
X252938Y-118040D03*
X243990Y136670D03*
X234990D03*
X225990D03*
X219470Y-61514D03*
X210511D03*
X143228Y-122514D03*
X129770Y182410D03*
X121770Y194447D03*
X102210Y177410D03*
X99072Y63389D03*
X81474Y5474D03*
Y-12526D03*
X79809Y198671D03*
X76714Y153230D03*
X76427Y-103273D03*
X61907Y57483D03*
X58714Y153230D03*
X30827Y176230D03*
X36033Y8569D03*
X-21401Y198671D03*
X-24496Y153230D03*
X-33944Y88924D03*
G54D38*
X288481Y-147607D03*
Y-133040D03*
G54D30*
X245590Y72834D03*
Y64960D03*
G54D29*
Y79835D03*
Y57961D03*
G54D35*
X161598Y-37514D03*
X145669Y111176D03*
X121669D03*
X97379Y91089D03*
Y31751D03*
X79505Y91089D03*
X71631D03*
X81474Y31751D03*
X-353Y64963D03*
X-16353D03*
G54D33*
X191477Y185273D03*
X123055Y-131710D03*
G54D24*
X312000Y113727D03*
Y43727D03*
Y-36273D03*
X302000Y83727D03*
Y63727D03*
Y13727D03*
Y-16273D03*
Y-56273D03*
X266250Y120000D03*
X232000Y-130000D03*
X70000Y120000D03*
X3740Y196230D03*
Y156230D03*
X-22000Y-130000D03*
G54D25*
X312000Y103727D03*
Y93727D03*
Y83727D03*
Y73727D03*
Y63727D03*
Y53727D03*
Y33727D03*
Y13727D03*
Y23727D03*
Y3727D03*
Y-6273D03*
Y-16273D03*
Y-26273D03*
Y-46273D03*
Y-56273D03*
Y-66273D03*
X302000Y113727D03*
Y103727D03*
Y93727D03*
Y73727D03*
Y53727D03*
Y43727D03*
Y33727D03*
Y23727D03*
Y3727D03*
Y-6273D03*
Y-26273D03*
Y-36273D03*
Y-46273D03*
Y-66273D03*
Y-76273D03*
X256250Y120000D03*
X246250D03*
X110000D03*
X114137Y-100341D03*
Y-120341D03*
X100000Y120000D03*
X90000D03*
X80000D03*
X13740Y186230D03*
Y176230D03*
X3740Y186230D03*
Y176230D03*
Y166230D03*
X1690Y120000D03*
X-8310D03*
X-41030Y56420D03*
G54D34*
X182685Y-37514D03*
X137669Y111176D03*
X97379Y84003D03*
X79505D03*
X71631D03*
X-8353Y64963D03*
G54D31*
X220666Y-108120D03*
X213580D03*
X191477Y177273D03*
Y169273D03*
X112454Y3880D03*
Y-7120D03*
Y-18120D03*
Y-38620D03*
Y-51120D03*
X30827Y196230D03*
Y166230D03*
X112454Y-30620D03*
%LPD*%
G75*
G54D10*
X-56000Y56000D03*
Y72000D03*
Y220000D03*
X-52000Y40000D03*
Y88000D03*
Y160000D03*
Y168000D03*
Y176000D03*
Y184000D03*
X-36000Y40000D03*
X-40000Y96000D03*
X-44000Y168000D03*
Y160000D03*
X-40000Y220000D03*
X-24000Y96000D03*
Y160000D03*
Y168000D03*
Y220000D03*
X-20000Y40000D03*
X-16000Y168000D03*
Y176000D03*
Y184000D03*
X-8000Y96000D03*
Y220000D03*
X8000Y96000D03*
Y220000D03*
X12000Y40000D03*
X28000D03*
X24000Y96000D03*
Y220000D03*
X44000Y40000D03*
X40000Y84000D03*
Y96000D03*
X48000Y160000D03*
X40000Y220000D03*
X56000Y8000D03*
Y40000D03*
Y160000D03*
Y220000D03*
X64000Y-16000D03*
Y8000D03*
Y44000D03*
Y100000D03*
X80000Y-128000D03*
X76000Y-120000D03*
X72000Y-112000D03*
X80000D03*
X72000Y-16000D03*
Y8000D03*
Y100000D03*
X80000D03*
Y160000D03*
X72000Y220000D03*
X88000Y-136000D03*
Y-108000D03*
Y-68000D03*
Y88000D03*
Y96000D03*
Y160000D03*
Y220000D03*
X96000Y-136000D03*
Y-108000D03*
Y-68000D03*
X104000Y-132000D03*
X108000Y-116000D03*
Y-124000D03*
X104000Y-108000D03*
X108000Y-100000D03*
X104000Y-68000D03*
Y220000D03*
X116000Y-68000D03*
X120000Y220000D03*
X140000Y-64000D03*
Y-56000D03*
Y-48000D03*
X144000Y-40000D03*
X136000Y220000D03*
X148000Y-68000D03*
X152000Y-32000D03*
Y220000D03*
X156000Y-68000D03*
X176000Y168000D03*
Y176000D03*
Y184000D03*
Y204000D03*
Y212000D03*
X168000Y220000D03*
X192000Y-68000D03*
Y152000D03*
Y160000D03*
Y200000D03*
X200000Y-68000D03*
Y-24000D03*
Y152000D03*
X204000Y164000D03*
X200000Y160000D03*
X204000Y172000D03*
Y188000D03*
Y180000D03*
X200000Y224000D03*
X216000Y152000D03*
X208000D03*
X216000Y216000D03*
X208000D03*
X216000Y224000D03*
X208000D03*
X224000Y152000D03*
Y160000D03*
Y168000D03*
Y176000D03*
Y216000D03*
Y224000D03*
X236000Y152000D03*
X232000Y216000D03*
Y224000D03*
X240000Y-148000D03*
Y-140000D03*
X248000D03*
X240000Y-132000D03*
X248000D03*
X240000Y-116000D03*
Y-124000D03*
X248000D03*
X240000Y-108000D03*
X248000Y-104000D03*
X244000Y152000D03*
Y168000D03*
Y160000D03*
Y176000D03*
Y184000D03*
X248000Y216000D03*
Y224000D03*
X260000Y-148000D03*
Y-140000D03*
X256000Y-124000D03*
Y-104000D03*
X260000Y168000D03*
X252000D03*
X256000Y208000D03*
Y216000D03*
Y224000D03*
X264000Y-124000D03*
Y-104000D03*
Y208000D03*
Y216000D03*
Y224000D03*
X280000Y-148000D03*
X272000Y-124000D03*
Y-104000D03*
Y112000D03*
Y136000D03*
Y152000D03*
Y168000D03*
Y184000D03*
Y192000D03*
Y200000D03*
Y208000D03*
Y216000D03*
Y224000D03*
X284000Y-140000D03*
X288000Y-124000D03*
Y112000D03*
Y136000D03*
Y152000D03*
Y168000D03*
Y184000D03*
Y200000D03*
Y216000D03*
X296000Y-148000D03*
Y-140000D03*
Y-132000D03*
Y-124000D03*
G54D20*
G01X-51310Y-134560D02*
X-44310D01*
G01X-51310Y120000D02*
X-44310D01*
G01Y-141560D02*
Y-134560D01*
G01D02*
Y-127560D01*
G01Y-134560D02*
X-37310D01*
G01X-44310Y113000D02*
Y120000D01*
G01D02*
Y127000D01*
G01Y120000D02*
X-37310D01*
G01X-25850Y-130000D02*
X-22000D01*
G01Y-133850D02*
Y-130000D01*
G01D02*
Y-126150D01*
G01Y-130000D02*
X-18150D01*
G01X-16353Y62393D02*
Y64963D01*
G01D02*
Y67534D01*
G01X-18726Y64963D02*
X-16353D01*
G01D02*
X-13979D01*
G01X-18310Y116150D02*
Y120000D01*
G01D02*
Y123850D01*
G01X-22160Y120000D02*
X-18310D01*
G01D02*
X-14460D01*
G01X-10912Y41303D02*
Y37072D01*
X8540Y17620D01*
X126072D01*
X132074Y23622D01*
X133858D01*
G01X-8353Y45664D02*
Y43880D01*
X-8360Y43872D01*
Y38590D01*
X9590Y20640D01*
X126939D01*
X133858Y27559D01*
G01X-5794Y50003D02*
Y39824D01*
X8370Y25660D01*
X128022D01*
X133858Y31496D01*
G01Y35433D02*
X2397D01*
X-3235Y41065D01*
Y45664D01*
G01X-353Y62393D02*
Y64963D01*
G01D02*
Y67534D01*
G01X-2726Y64963D02*
X-353D01*
G01D02*
X2021D01*
G01X3740Y152380D02*
Y156230D01*
G01D02*
Y160080D01*
G01X-110Y156230D02*
X3740D01*
G01D02*
X7590D01*
G01X3740Y192380D02*
Y196230D01*
G01D02*
Y200080D01*
G01X-110Y196230D02*
X3740D01*
G01D02*
X7590D01*
G01X11690Y120000D02*
X27130Y104560D01*
X91990D01*
X109936Y86614D01*
X141732D01*
G01X23740Y166230D02*
X13740D01*
G01X23740Y196230D02*
X13740D01*
G01X18768Y-122747D02*
X26645Y-114870D01*
X34060D01*
X42130Y-106800D01*
Y-94140D01*
X110350Y-25920D01*
X117990D01*
X119540Y-27470D01*
Y-30620D01*
G01X18768Y-99873D02*
X24161Y-94480D01*
X37540D01*
X108900Y-23120D01*
X117720D01*
X119540Y-21300D01*
Y-18120D01*
G01X177165Y82677D02*
Y97755D01*
X139850Y135070D01*
X34210D01*
X23740Y145540D01*
Y166230D01*
G01X181102Y78740D02*
Y127068D01*
X169510Y138660D01*
X53890D01*
X43050Y149500D01*
Y178260D01*
X36370Y184940D01*
X28280D01*
X23740Y189480D01*
Y196230D01*
G01X119540Y-51120D02*
Y-47931D01*
X118050Y-46440D01*
X98370D01*
X56050Y-88760D01*
Y-115465D01*
X48768Y-122747D01*
G01Y-99873D02*
Y-91842D01*
X97170Y-43440D01*
X117850D01*
X119540Y-41750D01*
Y-38620D01*
G01X69258Y91089D02*
X71631D01*
G01X70000Y116150D02*
Y120000D01*
G01D02*
Y123850D01*
G01X66150Y120000D02*
X70000D01*
G01D02*
X73850D01*
G01X79100Y31751D02*
X81474D01*
G01X79505Y88519D02*
Y91089D01*
G01D02*
Y93660D01*
G01X77132Y91089D02*
X79505D01*
G01D02*
X81879D01*
G01X71631Y88519D02*
Y91089D01*
G01D02*
Y93660D01*
G01Y91089D02*
X74005D01*
G01X81474Y29180D02*
Y31751D01*
G01D02*
X83848D01*
G01X97379Y29180D02*
Y31751D01*
G01X95006D02*
X97379D01*
G01D02*
X99753D01*
G01X97379Y88519D02*
Y91089D01*
G01D02*
Y93660D01*
G01X95006Y91089D02*
X97379D01*
G01D02*
X99753D01*
G01X120484Y-131710D02*
X123055D01*
G01X149606Y7874D02*
Y-21251D01*
X119737Y-51120D01*
X119540D01*
G01Y-38620D02*
X119737D01*
X145669Y-12688D01*
Y7874D01*
G01X119540Y-30620D02*
X119737D01*
X141732Y-8625D01*
Y7874D01*
G01X119540Y-18120D02*
X119737D01*
X139460Y1603D01*
Y9540D01*
X141731Y11811D01*
X145669D01*
G01X119540Y-7120D02*
X124220D01*
X128340Y-3000D01*
Y10230D01*
X137795Y19685D01*
G01X119540Y3880D02*
X119737D01*
X124880Y9023D01*
Y10700D01*
X137795Y23615D01*
Y27559D01*
G01X121669Y108606D02*
Y111176D01*
G01D02*
Y113747D01*
G01X119296Y111176D02*
X121669D01*
G01D02*
X124042D01*
G01X123055Y-134084D02*
Y-131710D01*
G01D02*
Y-129337D01*
G01Y-131710D02*
X125625D01*
G01X185039Y90551D02*
Y129751D01*
X137380Y177410D01*
X129770D01*
G01X143296Y111176D02*
X145669D01*
G01X157480Y27559D02*
Y3937D01*
X153543Y0D01*
G01Y13788D02*
Y15748D01*
G01X151780D02*
X153543D01*
G01D02*
X155306D01*
G01X145669Y21662D02*
Y23622D01*
G01X143906D02*
X145669D01*
G01D02*
X147432D01*
G01X153543Y25599D02*
Y27559D01*
G01X151780D02*
X153543D01*
G01X145669Y45284D02*
Y47244D01*
G01X143906D02*
X145669D01*
G01D02*
X147432D01*
G01X145669Y57095D02*
Y59055D01*
G01X143906D02*
X145669D01*
G01D02*
X147432D01*
G01X145669Y72843D02*
Y74803D01*
G01X143906D02*
X145669D01*
G01D02*
X147432D01*
G01X153543D02*
Y76763D01*
G01X151780Y74803D02*
X153543D01*
G01X149606Y86614D02*
Y88574D01*
G01Y86614D02*
X151369D01*
G01X145669Y108606D02*
Y111176D01*
G01D02*
Y113747D01*
G01Y111176D02*
X148042D01*
G01X161598Y-40084D02*
Y-37514D01*
G01D02*
Y-34944D01*
G01X159224Y-37514D02*
X161598D01*
G01D02*
X163972D01*
G01X157480Y31496D02*
Y33456D01*
G01Y31496D02*
X159243D01*
G01X161417Y53158D02*
Y55118D01*
G01X159654D02*
X161417D01*
G01X157480Y68906D02*
Y70866D01*
G01D02*
X159243D01*
G01X157480Y74803D02*
Y98425D01*
G01X169291Y13788D02*
Y15748D01*
G01X167528D02*
X169291D01*
G01D02*
X171054D01*
G01X171465Y31496D02*
X173228D01*
G01D02*
X174991D01*
G01X173228Y47244D02*
Y49204D01*
G01Y47244D02*
X174991D01*
G01X173228Y53158D02*
Y55118D01*
G01D02*
X174991D01*
G01X173228Y66929D02*
Y68889D01*
G01Y66929D02*
X174991D01*
G01X169291Y86614D02*
Y88574D01*
G01X167528Y86614D02*
X169291D01*
G01X181102Y23622D02*
X177165Y19685D01*
Y0D01*
G01X185039Y19685D02*
Y21645D01*
G01Y19685D02*
X186802D01*
G01X181102Y47244D02*
Y49204D01*
G01X179339Y47244D02*
X181102D01*
G01Y53158D02*
Y55118D01*
G01X179339D02*
X181102D01*
G01Y66929D02*
Y68889D01*
G01X179339Y66929D02*
X181102D01*
G01X185039Y78740D02*
Y82677D01*
G01Y86614D02*
Y88574D01*
G01X183276Y86614D02*
X185039D01*
G01D02*
X186802D01*
G01X196850Y27559D02*
X192913Y23622D01*
Y3937D01*
X196850Y0D01*
G01X195087Y15748D02*
X196850D01*
G01X195087Y31496D02*
X196850D01*
G01X192913Y47244D02*
Y49204D01*
G01Y47244D02*
X194676D01*
G01X192913Y53158D02*
Y55118D01*
G01D02*
X194676D01*
G01X196850Y74803D02*
X192913Y78740D01*
Y98425D01*
G01X191477Y182900D02*
Y185273D01*
G01D02*
Y187647D01*
G01X188906Y185273D02*
X191477D01*
G01D02*
X194047D01*
G01X203250Y-134560D02*
X210250D01*
G01X196850Y13788D02*
Y15748D01*
G01D02*
X198613D01*
G01X200787Y25599D02*
Y27559D01*
G01D02*
X202550D01*
G01X196850Y31496D02*
Y33456D01*
G01X200787Y74803D02*
Y76763D01*
G01Y74803D02*
X202550D01*
G01X203250Y120000D02*
X210250D01*
G01Y-141560D02*
Y-134560D01*
G01D02*
Y-127560D01*
G01Y-134560D02*
X217250D01*
G01X208661Y29536D02*
Y31496D01*
G01X206898Y39370D02*
X208661D01*
G01D02*
X210424D01*
G01X206898Y31496D02*
X208661D01*
G01D02*
X210424D01*
G01X206898Y47244D02*
X208661D01*
G01D02*
X210424D01*
G01X208661Y57095D02*
Y59055D01*
G01X206898D02*
X208661D01*
G01D02*
X210424D01*
G01X208661Y86614D02*
Y88574D01*
G01X206898Y86614D02*
X208661D01*
G01D02*
X210424D01*
G01X210250Y113000D02*
Y120000D01*
G01D02*
Y127000D01*
G01Y120000D02*
X217250D01*
G01X232000Y-133850D02*
Y-130000D01*
G01D02*
Y-126150D01*
G01X228150Y-130000D02*
X232000D01*
G01D02*
X235850D01*
G01X245590Y62587D02*
Y64960D01*
G01Y70461D02*
Y72834D01*
G01D02*
Y75208D01*
G01X243020Y72834D02*
X245590D01*
G01D02*
X248160D01*
G01X245590Y64960D02*
Y67334D01*
G01X243020Y64960D02*
X245590D01*
G01D02*
X248160D01*
G01X254426Y-152343D02*
Y-147607D01*
G01D02*
Y-142871D01*
G01X251658Y-147607D02*
X254426D01*
G01D02*
X257193D01*
G01X254426Y-137776D02*
Y-133040D01*
G01D02*
Y-128304D01*
G01X251658Y-133040D02*
X254426D01*
G01D02*
X257193D01*
G01X267722Y-147977D02*
X269485D01*
G01X266250Y116150D02*
Y120000D01*
G01D02*
Y123850D01*
G01X262400Y120000D02*
X266250D01*
G01D02*
X270100D01*
G01X273422Y-149937D02*
Y-147977D01*
G01X271658D02*
X273422D01*
G01D02*
X275185D01*
G01X269485Y-149937D02*
Y-147977D01*
G01D02*
X271248D01*
G01X288481Y-152343D02*
Y-147607D01*
G01D02*
Y-142871D01*
G01X285714Y-147607D02*
X288481D01*
G01D02*
X291248D01*
G01X288481Y-137776D02*
Y-133040D01*
G01D02*
Y-128304D01*
G01X285714Y-133040D02*
X288481D01*
G01D02*
X291248D01*
G01X297442Y-95446D02*
X307000D01*
G01X298150Y-56273D02*
X302000D01*
G01X298150Y-16273D02*
X302000D01*
G01X298150Y13727D02*
X302000D01*
G01X298150Y63727D02*
X302000D01*
G01X298150Y83727D02*
X302000D01*
G01X297442Y132900D02*
X307000D01*
G01Y-105005D02*
Y-95446D01*
G01D02*
Y-85888D01*
G01Y-95446D02*
X316558D01*
G01X302000Y-60123D02*
Y-56273D01*
G01D02*
Y-52423D01*
G01Y-56273D02*
X305850D01*
G01X308150Y-36273D02*
X312000D01*
G01X302000Y-20123D02*
Y-16273D01*
G01D02*
Y-12423D01*
G01Y-16273D02*
X305850D01*
G01X302000Y9877D02*
Y13727D01*
G01D02*
Y17577D01*
G01Y13727D02*
X305850D01*
G01X308150Y43727D02*
X312000D01*
G01X302000Y59877D02*
Y63727D01*
G01D02*
Y67577D01*
G01Y63727D02*
X305850D01*
G01X302000Y79877D02*
Y83727D01*
G01D02*
Y87577D01*
G01Y83727D02*
X305850D01*
G01X308150Y113727D02*
X312000D01*
G01X307000Y123342D02*
Y132900D01*
G01D02*
Y142458D01*
G01Y132900D02*
X316558D01*
G01X312000Y-40123D02*
Y-36273D01*
G01D02*
Y-32423D01*
G01Y-36273D02*
X315850D01*
G01X312000Y39877D02*
Y43727D01*
G01D02*
Y47577D01*
G01Y43727D02*
X315850D01*
G01X312000Y109877D02*
Y113727D01*
G01D02*
Y117577D01*
G01Y113727D02*
X315850D01*
G54D11*
X-44310Y-134560D03*
Y120000D03*
X210250Y-134560D03*
Y120000D03*
G54D21*
G01X-16353Y57877D02*
X-8353D01*
G01D02*
X-353D01*
G01D02*
X24970D01*
G01D02*
X54135D01*
X57482Y54530D01*
G01X97379Y38837D02*
Y43849D01*
X93391Y47837D01*
G01X145669Y104090D02*
X137669D01*
G01X145669Y78740D02*
Y104090D01*
G01X168598Y-30427D02*
X161598D01*
G01X168598Y-44427D02*
Y-37427D01*
G01Y-30427D02*
Y-37427D01*
G01Y-23424D02*
Y-30427D01*
G01X175685Y-44427D02*
Y-37427D01*
G01Y-30427D02*
Y-37427D01*
G01Y-23424D02*
Y-30427D01*
G01D02*
X182685D01*
G01X200787Y70866D02*
X236535D01*
X238504Y72834D01*
G01D02*
Y79835D01*
G01X269485Y-144040D02*
Y-133040D01*
G01X273422Y-144040D02*
Y-133040D01*
G54D12*
X-41030Y56420D03*
X-22000Y-130000D03*
X-8310Y120000D03*
X1690D03*
X3740Y156230D03*
Y166230D03*
Y176230D03*
Y186230D03*
Y196230D03*
X11690Y120000D03*
X13740Y166230D03*
Y176230D03*
Y186230D03*
Y196230D03*
X70000Y120000D03*
X80000D03*
X90000D03*
X100000D03*
X114137Y-120341D03*
Y-110341D03*
Y-100341D03*
X110000Y120000D03*
X173297Y-128050D03*
X232000Y-130000D03*
X246250Y120000D03*
X256250D03*
X266250D03*
X302000Y-76273D03*
Y-66273D03*
Y-56273D03*
Y-46273D03*
Y-36273D03*
Y-26273D03*
Y-16273D03*
Y-6273D03*
Y3727D03*
Y23727D03*
Y13727D03*
Y33727D03*
Y43727D03*
Y53727D03*
Y63727D03*
Y73727D03*
Y83727D03*
Y93727D03*
Y103727D03*
Y113727D03*
X312000Y-66273D03*
Y-56273D03*
Y-46273D03*
Y-36273D03*
Y-26273D03*
Y-16273D03*
Y-6273D03*
Y3727D03*
Y23727D03*
Y13727D03*
Y33727D03*
Y43727D03*
Y53727D03*
Y63727D03*
Y73727D03*
Y83727D03*
Y93727D03*
Y103727D03*
Y113727D03*
G54D22*
G01X121669Y104090D02*
X129669D01*
G01X192913Y66929D02*
X236535D01*
X238504Y64960D01*
G01D02*
Y57961D01*
G54D13*
X-41030Y66420D03*
X-22000Y-140000D03*
X-18310Y120000D03*
X-11811Y157480D03*
X13740Y156230D03*
X60000Y120000D03*
X82677Y-35433D03*
X118110Y157480D03*
X183297Y-128050D03*
X232000Y-140000D03*
X236250Y120000D03*
X259842Y137795D03*
X312000Y-76273D03*
G54D23*
G01X129669Y111176D02*
Y121851D01*
X121660Y129860D01*
X-8310D01*
G01X114137Y-110341D02*
X130141Y-126345D01*
Y-131710D01*
G01D02*
X137141D01*
G01X173297Y-128050D02*
X140998D01*
X137338Y-131710D01*
X137141D01*
G01X159228Y-92687D02*
X173297Y-106756D01*
Y-128050D01*
G01X198563Y177273D02*
Y169273D01*
G01Y185273D02*
Y177273D01*
G01X210540Y209990D02*
Y205300D01*
X198563Y193323D01*
Y185273D01*
G54D14*
X-42496Y146143D03*
X-39401Y198671D03*
X-33944Y88924D03*
X-26266D03*
X-33496Y146130D03*
X-24496Y146143D03*
Y153230D03*
X-27590Y181584D03*
X-31401Y198671D03*
X-33501Y206584D03*
X-13471Y50003D03*
Y72837D03*
X-16353Y64963D03*
X-18589Y88924D03*
X-21401Y198671D03*
X-10912Y41303D03*
X-8353Y45664D03*
X-5794Y50003D03*
X-3235Y45664D03*
X-8353Y64963D03*
X-5794Y72837D03*
X-10912Y88924D03*
X-3235D03*
X-8310Y129860D03*
X-353Y64963D03*
X7088Y88924D03*
X9883Y64963D03*
X16970D03*
X14765Y88924D03*
X18768Y-122747D03*
Y-99873D03*
X28120Y-3531D03*
X24970Y57877D03*
X22442Y88924D03*
X33532Y-122747D03*
Y-99873D03*
X36033Y-9431D03*
Y-1431D03*
Y8569D03*
X30827Y156230D03*
Y166230D03*
Y176230D03*
Y196230D03*
X48768Y-122747D03*
Y-99873D03*
X53120Y2380D03*
X50395Y47530D03*
X57482Y54530D03*
X50395D03*
Y84140D03*
Y77140D03*
Y100341D03*
X58714Y146143D03*
Y153230D03*
X63532Y-122747D03*
Y-99873D03*
X61907Y57483D03*
X67714Y146130D03*
X61809Y198671D03*
X69809D03*
X67709Y206584D03*
X76427Y-103273D03*
Y-80390D03*
X80490Y56920D03*
X75990D03*
X80490Y61420D03*
X75990D03*
X80490Y65920D03*
X75990D03*
X71631Y84003D03*
X79505D03*
Y91089D03*
X71631D03*
X76714Y146143D03*
Y153230D03*
X73620Y181584D03*
X79809Y198671D03*
X85147Y-117750D03*
X90147Y-96490D03*
X85147Y-80404D03*
X81474Y-12526D03*
X88561D03*
X88574Y-3526D03*
X81474Y5474D03*
X88561D03*
X81474Y31751D03*
Y38837D03*
X84990Y56920D03*
Y61420D03*
Y65920D03*
X95147Y-117750D03*
Y-96490D03*
X92107Y-80404D03*
X100147Y-80390D03*
X97379Y31751D03*
Y38837D03*
X93391Y47837D03*
X99072Y63389D03*
X97379Y84003D03*
Y91089D03*
X102210Y177410D03*
Y172410D03*
X109647Y-80404D03*
X112454Y-51120D03*
Y-38620D03*
Y-30620D03*
Y-18120D03*
X104186Y-7120D03*
X112454D03*
X104186Y3880D03*
X112454D03*
X123055Y-131710D03*
X117647Y-80404D03*
X121669Y104090D03*
Y111176D03*
X121770Y194447D03*
Y201533D03*
X133858Y23622D03*
Y27559D03*
Y31496D03*
Y35433D03*
X129770Y177410D03*
Y182410D03*
Y201533D03*
X144228Y-131710D03*
X143228Y-122514D03*
X141732Y7874D03*
X137795Y11811D03*
Y19685D03*
Y27559D03*
Y90551D03*
X141732Y86614D03*
X137669Y111176D03*
X147480Y-61514D03*
X153543Y0D03*
X145669Y7874D03*
X149606D03*
X153543Y19685D03*
Y15748D03*
X145669D03*
Y11811D03*
X153543Y31496D03*
X145669Y27559D03*
X153543D03*
X145669Y23622D03*
Y35433D03*
Y51181D03*
Y47244D03*
Y62992D03*
Y59055D03*
X153543Y70866D03*
X145669Y78740D03*
X149606Y82677D03*
X145669Y74803D03*
X153543D03*
X149606Y86614D03*
X145669Y111176D03*
X159228Y-92687D03*
X164070Y-69514D03*
X155480Y-61514D03*
X163480D03*
X158362Y-44427D03*
X161598Y-37514D03*
X157480Y27559D03*
Y31496D03*
X165354Y23622D03*
Y39370D03*
X161417Y35433D03*
Y39370D03*
X165354Y35433D03*
Y47244D03*
X161417D03*
Y43307D03*
X165354D03*
Y55118D03*
Y62992D03*
X161417Y59055D03*
Y62992D03*
Y55118D03*
X165354Y59055D03*
X161417Y66929D03*
X157480Y70866D03*
X165354Y66929D03*
X157480Y74803D03*
Y98425D03*
X168598Y-37427D03*
X175685D03*
X169291Y19685D03*
X173228D03*
X169291Y15748D03*
X173228Y23622D03*
Y27559D03*
Y31496D03*
Y39370D03*
X169291Y35433D03*
Y39370D03*
X173228Y35433D03*
Y43307D03*
X169291D03*
Y47244D03*
X173228D03*
Y59055D03*
X169291D03*
X173228Y62992D03*
X169291D03*
Y55118D03*
X173228D03*
X169291Y66929D03*
X173228D03*
X169291Y82677D03*
X173228D03*
Y86614D03*
X169291D03*
X185330Y-69514D03*
X183952Y-44427D03*
X181393D03*
X182685Y-37514D03*
X177165Y0D03*
X185039Y15748D03*
X181102Y19685D03*
X185039D03*
X181102Y15748D03*
Y27559D03*
X177165Y23622D03*
X181102D03*
X177165Y27559D03*
X185039Y31496D03*
X181102Y35433D03*
X185039D03*
Y39370D03*
X181102D03*
Y43307D03*
X185039Y47244D03*
Y43307D03*
X181102Y47244D03*
X185039Y62992D03*
Y55118D03*
X181102Y59055D03*
Y62992D03*
Y55118D03*
X185039Y59055D03*
X181102Y66929D03*
X185039D03*
X181102Y78740D03*
X177165Y82677D03*
X185039Y74803D03*
Y82677D03*
Y90551D03*
Y86614D03*
X184540Y204990D03*
X186511Y-61514D03*
X194511D03*
X196850Y0D03*
Y19685D03*
Y15748D03*
Y27559D03*
Y31496D03*
X188976Y35433D03*
X192913D03*
X188976Y39370D03*
X192913D03*
Y43307D03*
X188976D03*
Y47244D03*
X192913D03*
Y59055D03*
X188976Y55118D03*
Y62992D03*
X192913D03*
X188976Y59055D03*
X192913Y55118D03*
Y66929D03*
X188976D03*
X196850Y70866D03*
X188976Y78740D03*
Y82677D03*
X196850Y74803D03*
X188976D03*
X196850Y86614D03*
X192913Y98425D03*
X191477Y177273D03*
Y169273D03*
Y185273D03*
X202511Y-61514D03*
X199307Y-43840D03*
Y-35631D03*
X206084Y-16969D03*
X200787Y31496D03*
Y27559D03*
Y70866D03*
Y74803D03*
X204990Y143770D03*
X200540Y212077D03*
X213580Y-108120D03*
X210511Y-61514D03*
X212383Y-43840D03*
X216535Y11811D03*
X208661Y31496D03*
Y35433D03*
Y39370D03*
Y51181D03*
Y43307D03*
Y47244D03*
Y62992D03*
Y59055D03*
Y82677D03*
X212598Y74803D03*
X208661Y86614D03*
X216535Y90551D03*
X215990Y143770D03*
X210540Y209990D03*
Y199990D03*
X220666Y-108120D03*
X219470Y-61514D03*
Y-26969D03*
X225990Y136670D03*
Y143757D03*
X223140Y198990D03*
X219140D03*
Y205990D03*
Y202490D03*
X223140Y205990D03*
Y202490D03*
X228934Y-108120D03*
X234990Y136670D03*
Y143757D03*
X234949Y167990D03*
Y163390D03*
Y172590D03*
X245590Y57961D03*
Y64960D03*
Y72834D03*
Y79835D03*
X243990Y136670D03*
Y143757D03*
X241740Y192903D03*
Y217077D03*
X252938Y-118040D03*
Y-110953D03*
X258740Y155481D03*
X253740D03*
X258740Y179890D03*
X253740D03*
X249740Y192903D03*
X258740Y192890D03*
Y199990D03*
X269485Y-147977D03*
Y-133040D03*
X260626D03*
X260938Y-118040D03*
Y-110953D03*
X268938D03*
X263740Y155481D03*
Y179890D03*
X273422Y-147977D03*
Y-133040D03*
X282280D03*
X306550Y-143821D03*
G54D15*
X-16353Y57877D03*
Y64963D03*
X-8353Y57877D03*
Y64963D03*
X-353Y57877D03*
Y64963D03*
X81474Y31751D03*
Y38837D03*
X71631Y84003D03*
X79505D03*
X71631Y91089D03*
X79505D03*
X97379Y31751D03*
Y38837D03*
Y84003D03*
Y91089D03*
X121669Y104090D03*
Y111176D03*
X129669Y104090D03*
Y111176D03*
X137669Y104090D03*
Y111176D03*
X145669Y104090D03*
Y111176D03*
X161598Y-37514D03*
Y-30427D03*
X182685Y-37514D03*
Y-30427D03*
G54D16*
X23740Y166230D03*
Y196230D03*
X30827Y166230D03*
Y196230D03*
X112454Y-51120D03*
Y-38620D03*
Y-30620D03*
Y-18120D03*
Y-7120D03*
Y3880D03*
X123055Y-131710D03*
X119540Y-51120D03*
Y-38620D03*
Y-30620D03*
Y-18120D03*
Y-7120D03*
Y3880D03*
X130141Y-131710D03*
X144228D03*
X137141D03*
X175685Y-44427D03*
X168598D03*
X175685Y-37427D03*
X168598D03*
X175685Y-30427D03*
X168598D03*
X175685Y-23424D03*
X168598D03*
X191477Y169273D03*
Y177273D03*
Y185273D03*
X198563Y169273D03*
Y177273D03*
Y185273D03*
X213580Y-108120D03*
X220666D03*
X238504Y57961D03*
Y64960D03*
Y72834D03*
Y79835D03*
X245590Y57961D03*
Y64960D03*
Y72834D03*
Y79835D03*
G54D17*
X153543Y15748D03*
Y19685D03*
Y27559D03*
Y31496D03*
X145669Y23622D03*
Y27559D03*
Y47244D03*
Y51181D03*
Y59055D03*
Y62992D03*
X153543Y70866D03*
Y74803D03*
X149606Y82677D03*
X145669Y74803D03*
Y78740D03*
X149606Y86614D03*
X157480Y31496D03*
Y27559D03*
X161417Y39370D03*
Y35433D03*
Y43307D03*
Y47244D03*
Y62992D03*
Y55118D03*
Y59055D03*
Y66929D03*
X157480Y70866D03*
Y74803D03*
X169291Y15748D03*
Y19685D03*
X173228D03*
Y31496D03*
Y27559D03*
Y23622D03*
X165354Y35433D03*
Y39370D03*
X169291D03*
Y35433D03*
X173228D03*
Y39370D03*
X165354Y43307D03*
Y47244D03*
X169291D03*
Y43307D03*
X173228Y47244D03*
Y43307D03*
X165354Y62992D03*
X169291D03*
X173228D03*
Y55118D03*
Y59055D03*
X169291Y55118D03*
Y59055D03*
X165354D03*
Y55118D03*
Y66929D03*
X169291D03*
X173228D03*
X169291Y82677D03*
X173228D03*
X169291Y86614D03*
X173228D03*
X181102Y15748D03*
Y19685D03*
X185039D03*
Y15748D03*
X181102Y27559D03*
Y23622D03*
X177165Y27559D03*
Y23622D03*
X181102Y39370D03*
Y35433D03*
X185039Y39370D03*
Y35433D03*
Y43307D03*
Y47244D03*
X181102D03*
Y43307D03*
Y62992D03*
X185039D03*
X181102Y55118D03*
Y59055D03*
X185039D03*
Y55118D03*
X181102Y66929D03*
X185039D03*
Y82677D03*
Y74803D03*
Y78740D03*
Y86614D03*
X192913Y39370D03*
Y35433D03*
X188976Y39370D03*
Y35433D03*
Y47244D03*
Y43307D03*
X192913Y47244D03*
Y43307D03*
Y62992D03*
X188976D03*
Y59055D03*
Y55118D03*
X192913D03*
Y59055D03*
Y66929D03*
X188976D03*
Y78740D03*
Y82677D03*
X196850Y15748D03*
Y19685D03*
X200787Y27559D03*
Y31496D03*
X196850D03*
Y27559D03*
X200787Y70866D03*
X196850D03*
X200787Y74803D03*
X196850D03*
X208661Y31496D03*
Y39370D03*
Y35433D03*
Y47244D03*
Y51181D03*
Y43307D03*
Y59055D03*
Y62992D03*
Y82677D03*
Y86614D03*
X269485Y-147977D03*
Y-144040D03*
X273422Y-147977D03*
Y-144040D03*
G54D18*
X254426Y-147607D03*
Y-133040D03*
X288481Y-147607D03*
Y-133040D03*
G54D19*
X307000Y-95446D03*
Y132900D03*
M02*
