G04 ================== begin FILE IDENTIFICATION RECORD ==================*
G04 Layout Name:  E:/diansai/Monika1/monika_pcb4/monika.brd*
G04 Film Name:    PASTEMASK_TOP*
G04 File Format:  Gerber RS274X*
G04 File Origin:  Cadence Allegro 16.6-2015-S108*
G04 Origin Date:  Wed May 05 11:21:56 2021*
G04 *
G04 Layer:  VIA CLASS/PASTEMASK_TOP*
G04 Layer:  PIN/PASTEMASK_TOP*
G04 Layer:  PACKAGE GEOMETRY/PASTEMASK_TOP*
G04 *
G04 Offset:    (0.000 0.000)*
G04 Mirror:    No*
G04 Mode:      Positive*
G04 Rotation:  0*
G04 FullContactRelief:  No*
G04 UndefLineWidth:     6.000*
G04 ================== end FILE IDENTIFICATION RECORD ====================*
%FSLAX25Y25*MOIN*%
%IR0*IPPOS*OFA0.00000B0.00000*MIA0B0*SFA1.00000B1.00000*%
%ADD36R,.088976X.085039*%
%ADD30R,.11811X.066929*%
%ADD32R,.072X.024*%
%ADD11R,.057X.044*%
%ADD14R,.044X.057*%
%ADD19R,.102362X.102362*%
%ADD12R,.102362X.102362*%
%ADD23R,.023622X.061024*%
%ADD24R,.061024X.023622*%
%ADD25R,.035433X.049213*%
%ADD10R,.033465X.037402*%
%ADD17R,.037402X.033465*%
%ADD33R,.035433X.047244*%
%ADD27C,.019685*%
%ADD18R,.055118X.031496*%
%ADD28O,.017717X.059055*%
%ADD13R,.031496X.055118*%
%ADD34R,.031496X.047244*%
%ADD31R,.027559X.035433*%
%ADD20R,.012598X.033465*%
%ADD21R,.033465X.012598*%
%ADD16R,.049213X.027559*%
%ADD35R,.027559X.047244*%
%ADD22R,.019685X.019685*%
%ADD15R,.017717X.057087*%
%ADD29R,.012598X.027559*%
%ADD26R,.027559X.012598*%
%LPD*%
G75*
G54D10*
X-33944Y81837D03*
Y88924D03*
X-42496Y146143D03*
Y153230D03*
X-39401Y198671D03*
Y191584D03*
X-26030Y50003D03*
Y57089D03*
Y65751D03*
Y72837D03*
X-26266Y81837D03*
Y88924D03*
X-24496Y146143D03*
Y153230D03*
X-31401Y198671D03*
Y191584D03*
X-18589Y81837D03*
Y88924D03*
X-21401Y191584D03*
Y198671D03*
X-3235Y81837D03*
X-10912D03*
X-3235Y88924D03*
X-10912D03*
X7088Y81837D03*
Y88924D03*
X16970Y57877D03*
X9883D03*
X16970Y64963D03*
X9883D03*
X14765Y81837D03*
Y88924D03*
X24970Y50790D03*
Y57877D03*
Y72050D03*
Y64963D03*
X22442Y81837D03*
Y88924D03*
X33970Y50790D03*
Y57877D03*
Y64963D03*
Y72050D03*
X42970Y57877D03*
Y64963D03*
X58714Y146143D03*
Y153230D03*
X66513Y31751D03*
Y38837D03*
X69809Y198671D03*
Y191584D03*
X61809Y198671D03*
Y191584D03*
X76427Y-96187D03*
Y-103273D03*
X73600Y31751D03*
X81474D03*
X73600Y38837D03*
X81474D03*
X79505Y84003D03*
X71631D03*
X79505Y91089D03*
X71631D03*
X76714Y146143D03*
Y153230D03*
X79809Y191584D03*
Y198671D03*
X92107Y-87490D03*
X85147D03*
X92107Y-80404D03*
X85147D03*
X97379Y31751D03*
Y38837D03*
Y84003D03*
Y91089D03*
X93210Y175323D03*
Y182410D03*
X109647Y-87490D03*
Y-80404D03*
X117647Y-87490D03*
Y-80404D03*
X121770Y194447D03*
Y201533D03*
X127228Y-107427D03*
Y-100341D03*
X129770Y194447D03*
Y201533D03*
X143228Y-122514D03*
Y-115427D03*
Y-107427D03*
X135228D03*
X143228Y-100341D03*
X135228D03*
X151228Y-138797D03*
Y-131710D03*
Y-107427D03*
Y-100341D03*
X147480Y-61514D03*
Y-54427D03*
X158315Y-138797D03*
Y-131710D03*
X159228Y-107427D03*
Y-100341D03*
Y-92687D03*
Y-85600D03*
X155480Y-54427D03*
Y-61514D03*
X163480Y-54427D03*
Y-61514D03*
X171157Y-85600D03*
Y-78514D03*
X178244Y-85600D03*
Y-78514D03*
X186511Y-61514D03*
Y-54427D03*
X184540Y204990D03*
Y212077D03*
X197228Y-128847D03*
Y-121760D03*
Y-110253D03*
Y-103167D03*
X194511Y-61514D03*
Y-54427D03*
X192540Y204990D03*
Y212077D03*
X202511Y-61514D03*
Y-54427D03*
X200540Y204990D03*
Y212077D03*
X210511Y-61514D03*
Y-54427D03*
X219470Y-61514D03*
Y-54427D03*
X225990Y136670D03*
Y143757D03*
X234990Y136670D03*
Y143757D03*
X243990Y136670D03*
Y143757D03*
X249740Y192903D03*
Y199990D03*
X241740Y192903D03*
Y199990D03*
Y209990D03*
Y217077D03*
X252938Y-118040D03*
Y-110953D03*
X268938Y-118040D03*
X260938D03*
X268938Y-110953D03*
X260938D03*
G54D20*
X69663Y47837D03*
Y75003D03*
X79505Y47837D03*
X77537D03*
X75568D03*
X73600D03*
X71631D03*
Y75003D03*
X73600D03*
X75568D03*
X77537D03*
X79505D03*
X91316Y47837D03*
X89348D03*
X87380D03*
X85411D03*
X83442D03*
X81474D03*
Y75003D03*
X83442D03*
X85411D03*
X87380D03*
X89348D03*
X91316D03*
G54D11*
X-33496Y146130D03*
Y153230D03*
X28120Y-3531D03*
Y3569D03*
X67714Y146130D03*
Y153230D03*
X76427Y-87490D03*
Y-80390D03*
X100147Y-87490D03*
Y-80390D03*
X204990Y136670D03*
Y143770D03*
X215990Y136670D03*
Y143770D03*
X258740Y192890D03*
Y199990D03*
X277438Y-118040D03*
Y-110940D03*
G54D21*
X66907Y50593D03*
Y52562D03*
Y54530D03*
Y56499D03*
Y58467D03*
Y60436D03*
Y62404D03*
Y64373D03*
Y66341D03*
Y68310D03*
Y70278D03*
Y72247D03*
X94072Y50593D03*
Y62404D03*
Y60436D03*
Y58467D03*
Y56499D03*
Y54530D03*
Y52562D03*
Y72247D03*
Y70278D03*
Y68310D03*
Y66341D03*
Y64373D03*
G54D12*
X-33496Y166230D03*
X67714D03*
G54D30*
X179540Y159557D03*
Y194990D03*
G54D22*
X80490Y56920D03*
X75990D03*
X80490Y61420D03*
X75990D03*
X80490Y65920D03*
X75990D03*
X84990Y56920D03*
Y61420D03*
Y65920D03*
X210540Y168040D03*
Y163440D03*
Y172640D03*
X223140Y198990D03*
X219140D03*
Y205990D03*
Y202490D03*
X223140Y205990D03*
Y202490D03*
X234949Y167990D03*
Y163390D03*
Y172590D03*
X258740Y155481D03*
X253740D03*
X258740Y179890D03*
X253740D03*
X263740Y155481D03*
Y179890D03*
G54D31*
X213170Y-35631D03*
Y-26969D03*
X219470Y-35631D03*
Y-26969D03*
G54D13*
X-39401Y181584D03*
X-33496D03*
X-27590D03*
X61809D03*
X67714D03*
X73620D03*
G54D23*
X90147Y-117750D03*
X85147D03*
Y-96490D03*
X90147D03*
X100147Y-117750D03*
X95147D03*
Y-96490D03*
X100147D03*
X173244Y-115500D03*
X168244D03*
Y-94240D03*
X173244D03*
X183244Y-115500D03*
X178244D03*
Y-94240D03*
X183244D03*
G54D14*
X-33501Y206584D03*
X-26401D03*
X67709D03*
X81474Y-3526D03*
X74809Y206584D03*
X88574Y-3526D03*
G54D32*
X210540Y194990D03*
Y199990D03*
Y204990D03*
Y209990D03*
X231740Y194990D03*
Y209990D03*
Y204990D03*
Y199990D03*
G54D15*
X-13471Y50003D03*
X-16030D03*
Y72837D03*
X-13471D03*
X-3235Y50003D03*
X-5794D03*
X-8353D03*
X-10912D03*
Y72837D03*
X-8353D03*
X-5794D03*
X-3235D03*
X1883Y50003D03*
X-676D03*
Y72837D03*
X1883D03*
G54D33*
X260626Y-133040D03*
X282280D03*
G54D24*
X102210Y172410D03*
Y177410D03*
Y182410D03*
Y187410D03*
X129770Y177410D03*
Y172410D03*
Y187410D03*
Y182410D03*
G54D16*
X18768Y-130621D03*
Y-122747D03*
Y-107747D03*
Y-99873D03*
X33532Y-130621D03*
Y-122747D03*
Y-107747D03*
Y-99873D03*
X48768Y-130621D03*
Y-122747D03*
Y-107747D03*
Y-99873D03*
X63532Y-130621D03*
Y-122747D03*
Y-107747D03*
Y-99873D03*
G54D34*
X265469Y-133040D03*
X277438D03*
G54D25*
X112454Y-7120D03*
X104186D03*
X112454Y3880D03*
X104186D03*
X220666Y-108120D03*
X228934D03*
G54D26*
X112191Y50593D03*
Y48625D03*
Y46656D03*
X107072D03*
Y48625D03*
Y50593D03*
X112191Y60436D03*
Y58467D03*
Y56499D03*
Y54530D03*
Y52562D03*
X107072D03*
Y54530D03*
Y56499D03*
Y58467D03*
Y60436D03*
X112191Y72247D03*
Y70278D03*
Y68310D03*
Y66341D03*
X107072D03*
Y68310D03*
Y70278D03*
Y72247D03*
X112191Y80121D03*
Y78152D03*
Y76184D03*
Y74215D03*
X107072D03*
Y76184D03*
Y78152D03*
Y80121D03*
X265590Y-4378D03*
Y-2410D03*
Y-441D03*
Y1527D03*
Y3496D03*
Y5464D03*
Y7433D03*
Y9401D03*
Y16401D03*
Y18370D03*
Y20338D03*
Y22307D03*
Y24275D03*
Y26244D03*
Y28212D03*
Y30181D03*
Y37181D03*
Y39149D03*
Y41118D03*
Y43086D03*
Y45055D03*
Y47024D03*
Y48992D03*
Y50960D03*
Y86834D03*
Y88803D03*
Y90772D03*
Y92740D03*
Y94709D03*
Y96677D03*
Y98646D03*
Y100614D03*
X270708Y-441D03*
Y-2410D03*
Y-4378D03*
Y9401D03*
Y7433D03*
Y5464D03*
Y3496D03*
Y1527D03*
Y20338D03*
Y18370D03*
Y16401D03*
Y30181D03*
Y28212D03*
Y26244D03*
Y24275D03*
Y22307D03*
Y41118D03*
Y39149D03*
Y37181D03*
Y50960D03*
Y48992D03*
Y47024D03*
Y45055D03*
Y43086D03*
Y92740D03*
Y90772D03*
Y88803D03*
Y86834D03*
Y100614D03*
Y98646D03*
Y96677D03*
Y94709D03*
G54D35*
X269485Y-133040D03*
X273422D03*
G54D17*
X9883Y50003D03*
X16970D03*
X9883Y72837D03*
X16970D03*
X23740Y156230D03*
Y176230D03*
X36033Y-9431D03*
Y-1431D03*
Y8569D03*
X30827Y156230D03*
Y176230D03*
X43120Y-9431D03*
Y-1431D03*
Y8569D03*
X50395Y47530D03*
Y54530D03*
Y70140D03*
Y77140D03*
Y84140D03*
Y93140D03*
Y100341D03*
X57482Y47530D03*
Y54530D03*
Y70140D03*
Y77140D03*
Y84140D03*
Y93140D03*
Y100341D03*
X66513Y23751D03*
X81474Y-12526D03*
Y5474D03*
X73600Y23751D03*
X90147Y-127750D03*
X88561Y-12526D03*
Y5474D03*
X97233Y-127750D03*
X136141Y-87490D03*
X143228D03*
X151228Y-115710D03*
Y-123710D03*
X158315Y-115710D03*
Y-123710D03*
X164070Y-69514D03*
X171157D03*
Y-61514D03*
X183297Y-138797D03*
X185330Y-69514D03*
X178244D03*
Y-61514D03*
X190383Y-138797D03*
X206393Y-43840D03*
X199307D03*
X206393Y-35631D03*
X199307D03*
X206084Y-16969D03*
Y-8969D03*
X212383Y-43840D03*
X213170Y-16969D03*
Y-8969D03*
X219470Y-43840D03*
X224653Y186990D03*
X231740D03*
G54D18*
X53120Y-9431D03*
Y-3526D03*
Y2380D03*
G54D27*
X135826Y9842D03*
X139763D03*
X143700D03*
X135826Y13779D03*
Y17716D03*
X139763Y13779D03*
Y17716D03*
X143700Y13779D03*
Y17716D03*
X135826Y21653D03*
Y25590D03*
Y29528D03*
X139763Y21653D03*
Y25590D03*
Y29528D03*
X143700Y21653D03*
Y25590D03*
Y29528D03*
X135826Y33464D03*
Y37402D03*
Y41338D03*
X139763Y33464D03*
Y37402D03*
Y41338D03*
X143700Y33464D03*
Y37402D03*
Y41338D03*
X135826Y45276D03*
Y49212D03*
X139763Y45276D03*
Y49212D03*
X143700Y45276D03*
Y49212D03*
X135826Y53150D03*
Y57087D03*
Y61024D03*
X139763Y53150D03*
Y57087D03*
Y61024D03*
X143700Y53150D03*
Y57087D03*
Y61024D03*
X135826Y64960D03*
Y68898D03*
Y72834D03*
X139763Y64960D03*
Y68898D03*
Y72834D03*
X143700Y64960D03*
Y68898D03*
Y72834D03*
X135826Y76772D03*
Y80709D03*
X139763Y76772D03*
Y80709D03*
X143700Y76772D03*
Y80709D03*
X135826Y84646D03*
Y88583D03*
Y92520D03*
X139763Y84646D03*
Y88583D03*
Y92520D03*
X143700Y84646D03*
Y88583D03*
Y92520D03*
X147637Y9842D03*
X151574D03*
X147637Y13779D03*
Y17716D03*
X151574Y13779D03*
Y17716D03*
X147637Y21653D03*
Y25590D03*
Y29528D03*
X151574Y21653D03*
Y25590D03*
Y29528D03*
X147637Y33464D03*
Y37402D03*
Y41338D03*
X151574Y33464D03*
Y37402D03*
Y41338D03*
X147637Y45276D03*
Y49212D03*
X151574Y45276D03*
Y49212D03*
X147637Y53150D03*
Y57087D03*
Y61024D03*
X151574Y53150D03*
Y57087D03*
Y61024D03*
X147637Y64960D03*
Y68898D03*
Y72834D03*
X151574Y64960D03*
Y68898D03*
Y72834D03*
X147637Y76772D03*
Y80709D03*
X151574Y76772D03*
Y80709D03*
X147637Y84646D03*
Y88583D03*
Y92520D03*
X151574Y84646D03*
Y88583D03*
Y92520D03*
X155512Y9842D03*
X159448D03*
X163386D03*
X155512Y13779D03*
Y17716D03*
X159448Y13779D03*
Y17716D03*
X163386Y13779D03*
Y17716D03*
X155512Y21653D03*
Y25590D03*
Y29528D03*
X159448Y21653D03*
Y25590D03*
Y29528D03*
X163386Y21653D03*
Y25590D03*
Y29528D03*
X155512Y33464D03*
Y37402D03*
Y41338D03*
X159448Y33464D03*
Y37402D03*
Y41338D03*
X163386Y33464D03*
Y37402D03*
Y41338D03*
X155512Y45276D03*
Y49212D03*
X159448Y45276D03*
Y49212D03*
X163386Y45276D03*
Y49212D03*
X155512Y53150D03*
Y57087D03*
Y61024D03*
X159448Y53150D03*
Y57087D03*
Y61024D03*
X163386Y53150D03*
Y57087D03*
Y61024D03*
X155512Y64960D03*
Y68898D03*
Y72834D03*
X159448Y64960D03*
Y68898D03*
Y72834D03*
X163386Y64960D03*
Y68898D03*
Y72834D03*
X155512Y76772D03*
Y80709D03*
X159448Y76772D03*
Y80709D03*
X163386Y76772D03*
Y80709D03*
X155512Y84646D03*
Y88583D03*
Y92520D03*
X159448Y84646D03*
Y88583D03*
Y92520D03*
X163386Y84646D03*
Y88583D03*
Y92520D03*
X167322Y9842D03*
X171260D03*
X175196D03*
X167322Y13779D03*
Y17716D03*
X171260Y13779D03*
Y17716D03*
X175196Y13779D03*
Y17716D03*
X167322Y21653D03*
Y25590D03*
Y29528D03*
X171260Y21653D03*
Y25590D03*
Y29528D03*
X175196Y21653D03*
Y25590D03*
Y29528D03*
X167322Y33464D03*
Y37402D03*
Y41338D03*
X171260Y33464D03*
Y37402D03*
Y41338D03*
X175196Y33464D03*
Y37402D03*
Y41338D03*
X167322Y45276D03*
Y49212D03*
X171260Y45276D03*
Y49212D03*
X175196Y45276D03*
Y49212D03*
X167322Y53150D03*
Y57087D03*
Y61024D03*
X171260Y53150D03*
Y57087D03*
Y61024D03*
X175196Y53150D03*
Y57087D03*
Y61024D03*
X167322Y64960D03*
Y68898D03*
Y72834D03*
X171260Y64960D03*
Y68898D03*
Y72834D03*
X175196Y64960D03*
Y68898D03*
Y72834D03*
X167322Y76772D03*
Y80709D03*
X171260Y76772D03*
Y80709D03*
X175196Y76772D03*
Y80709D03*
X167322Y84646D03*
Y88583D03*
Y92520D03*
X171260Y84646D03*
Y88583D03*
Y92520D03*
X175196Y84646D03*
Y88583D03*
Y92520D03*
X179134Y9842D03*
X183070D03*
X179134Y13779D03*
Y17716D03*
X183070Y13779D03*
Y17716D03*
X179134Y21653D03*
Y25590D03*
Y29528D03*
X183070Y21653D03*
Y25590D03*
Y29528D03*
X179134Y33464D03*
Y37402D03*
Y41338D03*
X183070Y33464D03*
Y37402D03*
Y41338D03*
X179134Y45276D03*
Y49212D03*
X183070Y45276D03*
Y49212D03*
X179134Y53150D03*
Y57087D03*
Y61024D03*
X183070Y53150D03*
Y57087D03*
Y61024D03*
X179134Y64960D03*
Y68898D03*
Y72834D03*
X183070Y64960D03*
Y68898D03*
Y72834D03*
X179134Y76772D03*
Y80709D03*
X183070Y76772D03*
Y80709D03*
X179134Y84646D03*
Y88583D03*
Y92520D03*
X183070Y84646D03*
Y88583D03*
Y92520D03*
X187008Y9842D03*
X190944D03*
X194882D03*
X187008Y13779D03*
Y17716D03*
X190944Y13779D03*
Y17716D03*
X194882Y13779D03*
Y17716D03*
X187008Y21653D03*
Y25590D03*
Y29528D03*
X190944Y21653D03*
Y25590D03*
Y29528D03*
X194882Y21653D03*
Y25590D03*
Y29528D03*
X187008Y33464D03*
Y37402D03*
Y41338D03*
X190944Y33464D03*
Y37402D03*
Y41338D03*
X194882Y33464D03*
Y37402D03*
Y41338D03*
X187008Y45276D03*
Y49212D03*
X190944Y45276D03*
Y49212D03*
X194882Y45276D03*
Y49212D03*
X187008Y53150D03*
Y57087D03*
Y61024D03*
X190944Y53150D03*
Y57087D03*
Y61024D03*
X194882Y53150D03*
Y57087D03*
Y61024D03*
X187008Y64960D03*
Y68898D03*
Y72834D03*
X190944Y64960D03*
Y68898D03*
Y72834D03*
X194882Y64960D03*
Y68898D03*
Y72834D03*
X187008Y76772D03*
Y80709D03*
X190944Y76772D03*
Y80709D03*
X194882Y76772D03*
Y80709D03*
X187008Y84646D03*
Y88583D03*
Y92520D03*
X190944Y84646D03*
Y88583D03*
Y92520D03*
X194882Y84646D03*
Y88583D03*
Y92520D03*
X198818Y9842D03*
X202756D03*
X206693D03*
X198818Y13779D03*
Y17716D03*
X202756Y13779D03*
Y17716D03*
X206693Y13779D03*
Y17716D03*
X198818Y21653D03*
Y25590D03*
Y29528D03*
X202756Y21653D03*
Y25590D03*
Y29528D03*
X206693Y21653D03*
Y25590D03*
Y29528D03*
X198818Y33464D03*
Y37402D03*
Y41338D03*
X202756Y33464D03*
Y37402D03*
Y41338D03*
X206693Y33464D03*
Y37402D03*
Y41338D03*
X198818Y45276D03*
Y49212D03*
X202756Y45276D03*
Y49212D03*
X206693Y45276D03*
Y49212D03*
X198818Y53150D03*
Y57087D03*
Y61024D03*
X202756Y53150D03*
Y57087D03*
Y61024D03*
X206693Y53150D03*
Y57087D03*
Y61024D03*
X198818Y64960D03*
Y68898D03*
Y72834D03*
X202756Y64960D03*
Y68898D03*
Y72834D03*
X206693Y64960D03*
Y68898D03*
Y72834D03*
X198818Y76772D03*
Y80709D03*
X202756Y76772D03*
Y80709D03*
X206693Y76772D03*
Y80709D03*
X198818Y84646D03*
Y88583D03*
Y92520D03*
X202756Y84646D03*
Y88583D03*
Y92520D03*
X206693Y84646D03*
Y88583D03*
Y92520D03*
X210630Y9842D03*
X214567D03*
X210630Y13779D03*
Y17716D03*
X214567Y13779D03*
Y17716D03*
X210630Y21653D03*
Y25590D03*
Y29528D03*
X214567Y21653D03*
Y25590D03*
Y29528D03*
X210630Y33464D03*
Y37402D03*
Y41338D03*
X214567Y33464D03*
Y37402D03*
Y41338D03*
X210630Y45276D03*
Y49212D03*
X214567Y45276D03*
Y49212D03*
X210630Y53150D03*
Y57087D03*
Y61024D03*
X214567Y53150D03*
Y57087D03*
Y61024D03*
X210630Y64960D03*
Y68898D03*
Y72834D03*
X214567Y64960D03*
Y68898D03*
Y72834D03*
X210630Y76772D03*
Y80709D03*
X214567Y76772D03*
Y80709D03*
X210630Y84646D03*
Y88583D03*
Y92520D03*
X214567Y84646D03*
Y88583D03*
Y92520D03*
X218504Y9842D03*
Y13779D03*
Y17716D03*
Y21653D03*
Y25590D03*
Y29528D03*
Y33464D03*
Y37402D03*
Y41338D03*
Y45276D03*
Y49212D03*
Y53150D03*
Y57087D03*
Y61024D03*
Y64960D03*
Y68898D03*
Y72834D03*
Y76772D03*
Y80709D03*
Y84646D03*
Y88583D03*
Y92520D03*
G54D36*
X306550Y-143821D03*
Y-124530D03*
G54D28*
X163480Y-44427D03*
X160921D03*
X158362D03*
X155803D03*
Y-21593D03*
X158362D03*
X160921D03*
X163480D03*
X173716Y-44427D03*
X171157D03*
X168598D03*
X166039D03*
Y-21593D03*
X168598D03*
X171157D03*
X173716D03*
X183952Y-44427D03*
X181393D03*
X178834D03*
X176275D03*
Y-21593D03*
X178834D03*
X181393D03*
X183952D03*
X189070Y-44427D03*
X186511D03*
Y-21593D03*
X189070D03*
G54D19*
X68474Y-3526D03*
G54D29*
X163480Y-9529D03*
X161511D03*
X159543D03*
X157574D03*
X155606D03*
Y-4411D03*
X157574D03*
X159543D03*
X161511D03*
X163480D03*
X169386Y-9529D03*
X167417D03*
X165448D03*
Y-4411D03*
X167417D03*
X169386D03*
X185133Y-9529D03*
X183165D03*
X181196D03*
X179228D03*
Y-4411D03*
X181196D03*
X183165D03*
X185133D03*
X193008Y-9529D03*
X191039D03*
X189070D03*
X187102D03*
Y-4411D03*
X189070D03*
X191039D03*
X193008D03*
M02*
