G04 ================== begin FILE IDENTIFICATION RECORD ==================*
G04 Layout Name:  E:/diansai/Monika1/monika_pcb4/monika.brd*
G04 Film Name:    POWER*
G04 File Format:  Gerber RS274X*
G04 File Origin:  Cadence Allegro 16.6-2015-S108*
G04 Origin Date:  Tue May 04 15:16:23 2021*
G04 *
G04 Layer:  ETCH/POWER*
G04 Layer:  PIN/POWER*
G04 Layer:  VIA CLASS/POWER*
G04 *
G04 Offset:    (0.000 0.000)*
G04 Mirror:    No*
G04 Mode:      Negative*
G04 Rotation:  0*
G04 FullContactRelief:  No*
G04 UndefLineWidth:     6.000*
G04 ================== end FILE IDENTIFICATION RECORD ====================*
%FSLAX25Y25*MOIN*%
%IR0*IPPOS*OFA0.00000B0.00000*MIA0B0*SFA1.00000B1.00000*%
%ADD11C,.136*%
%ADD17C,.23622*%
%ADD13C,.023622*%
%ADD12C,.074803*%
%ADD10C,.027559*%
%ADD14C,.062992*%
%ADD15C,.019685*%
%ADD16O,.057087X.098425*%
G75*
%LPD*%
G75*
G36*
G01X-109000Y-210000D02*
X368000D01*
Y272000D01*
X-109000D01*
Y-210000D01*
G37*
%LPC*%
G75*
G36*
G01X320780Y146680D02*
Y-154620D01*
X-63220D01*
Y229380D01*
X293180D01*
Y152180D01*
G03X298680Y146680I5500J0D01*
G01X320780D01*
G37*
%LPD*%
G75*
G36*
G01X237220Y34433D02*
Y-79740D01*
X42307D01*
Y39445D01*
X42298Y39474D01*
G02Y40526I1702J526D01*
G01X42307Y40555D01*
Y105299D01*
X-48244D01*
Y114331D01*
G02Y125669I3934J5669D01*
G01Y174228D01*
X-8874D01*
Y209661D01*
X44307D01*
Y182102D01*
X72117D01*
X72169Y182222D01*
G02X75071I1451J-637D01*
G01X75123Y182102D01*
X85614D01*
Y209661D01*
X213598D01*
Y170291D01*
X272653D01*
Y169662D01*
X272767Y169608D01*
G02Y166392I-767J-1608D01*
G01X272653Y166338D01*
Y153662D01*
X272767Y153608D01*
G02Y150392I-767J-1608D01*
G01X272653Y150338D01*
Y137662D01*
X272767Y137608D01*
G02Y134392I-767J-1608D01*
G01X272653Y134338D01*
Y113662D01*
X272767Y113608D01*
G02Y110392I-767J-1608D01*
G01X272653Y110338D01*
Y34433D01*
X237220D01*
G37*
%LPC*%
G75*
G36*
G01X42307Y107299D02*
X-46244D01*
Y172228D01*
X-6874D01*
Y207661D01*
X42307D01*
Y107299D01*
G37*
G36*
G01X112186Y123047D02*
G03X109085Y116364I-2186J-3047D01*
G01X109236Y116326D01*
Y-8874D01*
X235220D01*
Y-77740D01*
X44307D01*
Y-52181D01*
X91551D01*
Y106713D01*
X90965Y107299D01*
X44307D01*
Y180102D01*
X73059D01*
X73092Y180090D01*
G03X74148I529J1494D01*
G01X74181Y180102D01*
X87614D01*
Y207661D01*
X148606D01*
Y103362D01*
X130921D01*
Y123047D01*
X112186D01*
G37*
G36*
G01X44307Y38239D02*
X44456Y38278D01*
G03Y41722I-456J1722D01*
G01X44307Y41761D01*
Y105299D01*
X89551D01*
Y-50181D01*
X44307D01*
Y38239D01*
G37*
G36*
G01X114027Y-6874D02*
X113988Y-6724D01*
G03X111801Y-5676I-1534J-396D01*
G02X111236Y-5312I-165J364D01*
G01Y116460D01*
G03X113704Y120585I-1236J3540D01*
G02X114099Y121047I395J62D01*
G01X128921D01*
Y101362D01*
X235220D01*
Y-6874D01*
X114027D01*
G37*
G36*
G01X237220Y36433D02*
Y103362D01*
X150606D01*
Y207661D01*
X211598D01*
Y168291D01*
X269821D01*
G02X270221Y167911I0J-400D01*
G03X270653Y166834I1779J89D01*
G01Y153166D01*
G03Y150834I1347J-1166D01*
G01Y137166D01*
G03Y134834I1347J-1166D01*
G01Y113166D01*
G03Y110834I1347J-1166D01*
G01Y36433D01*
X237220D01*
G37*
%LPD*%
G75*
G36*
G01X144440Y10811D02*
X139024D01*
G02X136795Y13040I-1229J1000D01*
G01Y18456D01*
G02Y20914I1000J1229D01*
G01Y26330D01*
G02Y28788I1000J1229D01*
G01Y89322D01*
G02X139024Y91551I1000J1229D01*
G01X183810D01*
G02X186268I1229J-1000D01*
G01X215306D01*
G02X217535Y89322I1229J-1000D01*
G01Y13040D01*
G02X215306Y10811I-1000J-1229D01*
G01X146898D01*
G02X144440I-1229J1000D01*
G37*
%LPC*%
G75*
G36*
G01X139024Y12811D02*
G03X138795Y13040I-1229J-1000D01*
G01Y18456D01*
G03Y20914I-1000J1229D01*
G01Y26330D01*
G03Y28788I-1000J1229D01*
G01Y89322D01*
G03X139024Y89551I-1000J1229D01*
G01X183810D01*
G03X186268I1229J1000D01*
G01X215306D01*
G03X215535Y89322I1229J1000D01*
G01Y13040D01*
G03X215306Y12811I1000J-1229D01*
G01X146898D01*
G03X144440I-1229J-1000D01*
G01X139024D01*
G37*
%LPD*%
G75*
G36*
G01X171999Y22622D02*
X166583D01*
G02X164125I-1229J1000D01*
G01X148606D01*
Y79154D01*
X149192Y79740D01*
X179873D01*
G02X182331I1229J-1000D01*
G01X187747D01*
G02X190205I1229J-1000D01*
G01X205724D01*
Y22622D01*
X182331D01*
G02X179873I-1229J1000D01*
G01X178394D01*
G02X175936I-1229J1000D01*
G01X174457D01*
G02X171999I-1229J1000D01*
G37*
%LPC*%
G75*
G36*
G01X150606Y24622D02*
Y77740D01*
X179873D01*
G03X182331I1229J1000D01*
G01X187747D01*
G03X190205I1229J1000D01*
G01X203724D01*
Y24622D01*
X182331D01*
G03X179873I-1229J-1000D01*
G01X178394D01*
G03X175936I-1229J-1000D01*
G01X174457D01*
G03X171999I-1229J-1000D01*
G01X166583D01*
G03X164125I-1229J-1000D01*
G01X150606D01*
G37*
%LPD*%
G75*
G36*
G01X171999Y30496D02*
X158709D01*
G02X156480Y32725I-1229J1000D01*
G01Y69637D01*
G02X158709Y71866I1000J1229D01*
G01X195621D01*
G02X197850Y69637I1229J-1000D01*
G01Y32725D01*
G02X195621Y30496I-1000J-1229D01*
G01X186268D01*
G02X183810I-1229J1000D01*
G01X174457D01*
G02X171999I-1229J1000D01*
G37*
%LPC*%
G75*
G36*
G01X158709Y32496D02*
G03X158480Y32725I-1229J-1000D01*
G01Y69637D01*
G03X158709Y69866I-1000J1229D01*
G01X195621D01*
G03X195850Y69637I1229J1000D01*
G01Y32725D01*
G03X195621Y32496I1000J-1229D01*
G01X186268D01*
G03X183810I-1229J-1000D01*
G01X174457D01*
G03X171999I-1229J-1000D01*
G01X158709D01*
G37*
%LPD*%
G75*
G54D11*
X-44310Y-134560D03*
Y120000D03*
X210250Y-134560D03*
Y120000D03*
G54D17*
X307000Y-95446D03*
Y132900D03*
G54D13*
X-42496Y146143D03*
X-39401Y198671D03*
X-26266Y88924D03*
X-33496Y146130D03*
X-24496Y146143D03*
X-27590Y181584D03*
X-31401Y198671D03*
X-33501Y206584D03*
X-13471Y50003D03*
Y72837D03*
X-16353Y64963D03*
X-18589Y88924D03*
X-10912Y41303D03*
X-8353Y45664D03*
X-5794Y50003D03*
X-3235Y45664D03*
X-8353Y64963D03*
X-5794Y72837D03*
X-10912Y88924D03*
X-3235D03*
X-353Y64963D03*
X7088Y88924D03*
X9883Y64963D03*
X16970D03*
X14765Y88924D03*
X18768Y-122747D03*
Y-99873D03*
X28120Y-3531D03*
X24970Y57877D03*
X22442Y88924D03*
X33532Y-122747D03*
Y-99873D03*
X36033Y-9431D03*
Y-1431D03*
X30827Y156230D03*
X48768Y-122747D03*
Y-99873D03*
X53120Y2380D03*
X50395Y47530D03*
X57482Y54530D03*
X50395D03*
Y84140D03*
Y77140D03*
Y100341D03*
X58714Y146143D03*
X63532Y-122747D03*
Y-99873D03*
X67714Y146130D03*
X61809Y198671D03*
X69809D03*
X67709Y206584D03*
X76427Y-80390D03*
X80490Y56920D03*
X75990D03*
X80490Y61420D03*
X75990D03*
X80490Y65920D03*
X75990D03*
X79505Y91089D03*
X71631D03*
X76714Y146143D03*
X73620Y181584D03*
X85147Y-117750D03*
X90147Y-96490D03*
X85147Y-80404D03*
X88561Y-12526D03*
X88574Y-3526D03*
X88561Y5474D03*
X81474Y31751D03*
X84990Y56920D03*
Y61420D03*
Y65920D03*
X95147Y-117750D03*
Y-96490D03*
X92107Y-80404D03*
X100147Y-80390D03*
X97379Y31751D03*
Y91089D03*
X102210Y172410D03*
X109647Y-80404D03*
X104186Y-7120D03*
X112454D03*
X104186Y3880D03*
X112454D03*
X123055Y-131710D03*
X117647Y-80404D03*
X121669Y111176D03*
X121770Y201533D03*
X133858Y23622D03*
Y27559D03*
Y31496D03*
Y35433D03*
X129770Y177410D03*
Y201533D03*
X144228Y-131710D03*
X141732Y7874D03*
X137795Y11811D03*
Y19685D03*
Y27559D03*
Y90551D03*
X141732Y86614D03*
X147480Y-61514D03*
X145669Y7874D03*
X149606D03*
X153543Y15748D03*
X145669D03*
Y11811D03*
X153543Y27559D03*
X145669Y23622D03*
Y35433D03*
Y47244D03*
Y59055D03*
Y74803D03*
X153543D03*
X149606Y86614D03*
X145669Y111176D03*
X159228Y-92687D03*
X164070Y-69514D03*
X155480Y-61514D03*
X163480D03*
X158362Y-44427D03*
X161598Y-37514D03*
X157480Y27559D03*
Y31496D03*
X165354Y23622D03*
X161417Y39370D03*
X165354Y35433D03*
X161417Y43307D03*
X165354D03*
X161417Y62992D03*
Y55118D03*
X165354Y59055D03*
X157480Y70866D03*
X165354Y66929D03*
X157480Y74803D03*
X168598Y-37427D03*
X175685D03*
X169291Y15748D03*
X173228Y23622D03*
Y27559D03*
Y31496D03*
X169291Y39370D03*
X173228Y35433D03*
X169291Y47244D03*
X173228D03*
X169291Y62992D03*
Y55118D03*
X173228D03*
Y66929D03*
Y82677D03*
Y86614D03*
X169291D03*
X185330Y-69514D03*
X183952Y-44427D03*
X181393D03*
X185039Y15748D03*
Y19685D03*
X181102Y15748D03*
Y27559D03*
X177165Y23622D03*
X181102D03*
X177165Y27559D03*
X185039Y31496D03*
Y39370D03*
X181102D03*
X185039Y43307D03*
X181102Y47244D03*
Y55118D03*
X185039Y59055D03*
X181102Y66929D03*
X185039D03*
X181102Y78740D03*
X177165Y82677D03*
X185039Y74803D03*
Y90551D03*
Y86614D03*
X184540Y204990D03*
X186511Y-61514D03*
X194511D03*
X196850Y15748D03*
Y27559D03*
Y31496D03*
X188976Y39370D03*
X192913D03*
X188976Y47244D03*
X192913D03*
X188976Y62992D03*
X192913D03*
X188976Y59055D03*
X192913Y55118D03*
X196850Y70866D03*
X188976Y78740D03*
X196850Y74803D03*
X188976D03*
X196850Y86614D03*
X191477Y185273D03*
X202511Y-61514D03*
X199307Y-43840D03*
Y-35631D03*
X206084Y-16969D03*
X200787Y27559D03*
Y74803D03*
X204990Y143770D03*
X200540Y212077D03*
X212383Y-43840D03*
X216535Y11811D03*
X208661Y31496D03*
Y39370D03*
Y47244D03*
Y59055D03*
X212598Y74803D03*
X208661Y86614D03*
X216535Y90551D03*
X215990Y143770D03*
X210540Y209990D03*
Y199990D03*
X220666Y-108120D03*
X219470Y-26969D03*
X225990Y143757D03*
X223140Y198990D03*
X219140D03*
Y205990D03*
Y202490D03*
X223140Y205990D03*
Y202490D03*
X228934Y-108120D03*
X234990Y143757D03*
X234949Y167990D03*
Y163390D03*
Y172590D03*
X245590Y64960D03*
Y72834D03*
X243990Y143757D03*
X241740Y192903D03*
Y217077D03*
X252938Y-110953D03*
X249740Y192903D03*
X258740Y192890D03*
X269485Y-147977D03*
Y-133040D03*
X260626D03*
X260938Y-110953D03*
X268938D03*
X273422Y-147977D03*
Y-133040D03*
X282280D03*
X306550Y-143821D03*
G54D12*
X-41030Y56420D03*
Y66420D03*
X-22000Y-130000D03*
X-18310Y120000D03*
X1690D03*
X3740Y156230D03*
Y176230D03*
Y186230D03*
Y196230D03*
X11690Y120000D03*
X13740Y156230D03*
Y166230D03*
Y176230D03*
Y186230D03*
Y196230D03*
X70000Y120000D03*
X80000D03*
X90000D03*
X100000D03*
X114137Y-120341D03*
Y-110341D03*
Y-100341D03*
X110000Y120000D03*
X173297Y-128050D03*
X183297D03*
X232000Y-130000D03*
X236250Y120000D03*
X246250D03*
X266250D03*
X302000Y-76273D03*
Y-66273D03*
Y-56273D03*
Y-46273D03*
Y-36273D03*
Y-26273D03*
Y-16273D03*
Y-6273D03*
Y3727D03*
Y23727D03*
Y13727D03*
Y33727D03*
Y43727D03*
Y53727D03*
Y63727D03*
Y73727D03*
Y83727D03*
Y93727D03*
Y103727D03*
Y113727D03*
X312000Y-76273D03*
Y-66273D03*
Y-56273D03*
Y-46273D03*
Y-36273D03*
Y-26273D03*
Y-16273D03*
Y-6273D03*
Y3727D03*
Y23727D03*
Y13727D03*
Y33727D03*
Y43727D03*
Y53727D03*
Y63727D03*
Y73727D03*
Y83727D03*
Y93727D03*
Y103727D03*
Y113727D03*
G54D10*
X-56000Y56000D03*
Y72000D03*
Y220000D03*
X-52000Y40000D03*
Y88000D03*
Y160000D03*
Y168000D03*
Y176000D03*
Y184000D03*
X-36000Y40000D03*
X-40000Y96000D03*
X-44000Y168000D03*
Y160000D03*
X-40000Y220000D03*
X-24000Y96000D03*
Y160000D03*
Y168000D03*
Y220000D03*
X-20000Y40000D03*
X-16000Y168000D03*
Y176000D03*
Y184000D03*
X-8000Y96000D03*
Y220000D03*
X8000Y96000D03*
Y220000D03*
X12000Y40000D03*
X28000D03*
X24000Y96000D03*
Y220000D03*
X44000Y40000D03*
X40000Y84000D03*
Y96000D03*
X48000Y160000D03*
X40000Y220000D03*
X56000Y8000D03*
Y40000D03*
Y160000D03*
Y220000D03*
X64000Y-16000D03*
Y8000D03*
Y44000D03*
Y100000D03*
X80000Y-128000D03*
X76000Y-120000D03*
X72000Y-112000D03*
X80000D03*
X72000Y-16000D03*
Y8000D03*
Y100000D03*
X80000D03*
Y160000D03*
X72000Y220000D03*
X88000Y-136000D03*
Y-108000D03*
Y-68000D03*
Y88000D03*
Y96000D03*
Y160000D03*
Y220000D03*
X96000Y-136000D03*
Y-108000D03*
Y-68000D03*
X104000Y-132000D03*
X108000Y-116000D03*
Y-124000D03*
X104000Y-108000D03*
X108000Y-100000D03*
X104000Y-68000D03*
Y220000D03*
X116000Y-68000D03*
X120000Y220000D03*
X140000Y-64000D03*
Y-56000D03*
Y-48000D03*
X144000Y-40000D03*
X136000Y220000D03*
X148000Y-68000D03*
X152000Y-32000D03*
Y220000D03*
X156000Y-68000D03*
X176000Y168000D03*
Y176000D03*
Y184000D03*
Y204000D03*
Y212000D03*
X168000Y220000D03*
X192000Y-68000D03*
Y152000D03*
Y160000D03*
Y200000D03*
X200000Y-68000D03*
Y-24000D03*
Y152000D03*
X204000Y164000D03*
X200000Y160000D03*
X204000Y172000D03*
Y188000D03*
Y180000D03*
X200000Y224000D03*
X216000Y152000D03*
X208000D03*
X216000Y216000D03*
X208000D03*
X216000Y224000D03*
X208000D03*
X224000Y152000D03*
Y160000D03*
Y168000D03*
Y176000D03*
Y216000D03*
Y224000D03*
X236000Y152000D03*
X232000Y216000D03*
Y224000D03*
X240000Y-148000D03*
Y-140000D03*
X248000D03*
X240000Y-132000D03*
X248000D03*
X240000Y-116000D03*
Y-124000D03*
X248000D03*
X240000Y-108000D03*
X248000Y-104000D03*
X244000Y152000D03*
Y168000D03*
Y160000D03*
Y176000D03*
Y184000D03*
X248000Y216000D03*
Y224000D03*
X260000Y-148000D03*
Y-140000D03*
X256000Y-124000D03*
Y-104000D03*
X260000Y168000D03*
X252000D03*
X256000Y208000D03*
Y216000D03*
Y224000D03*
X264000Y-124000D03*
Y-104000D03*
Y208000D03*
Y216000D03*
Y224000D03*
X280000Y-148000D03*
X272000Y-124000D03*
Y-104000D03*
Y112000D03*
Y136000D03*
Y152000D03*
Y168000D03*
Y184000D03*
Y192000D03*
Y200000D03*
Y208000D03*
Y216000D03*
Y224000D03*
X284000Y-140000D03*
X288000Y-124000D03*
Y112000D03*
Y136000D03*
Y152000D03*
Y168000D03*
Y184000D03*
Y200000D03*
Y216000D03*
X296000Y-148000D03*
Y-140000D03*
Y-132000D03*
Y-124000D03*
G54D16*
X254426Y-147607D03*
Y-133040D03*
X288481Y-147607D03*
Y-133040D03*
%LPC*%
G75*
G54D14*
X-22000Y-140000D03*
X-11811Y157480D03*
X-8310Y120000D03*
X3740Y166230D03*
X60000Y120000D03*
X82677Y-35433D03*
X118110Y157480D03*
X232000Y-140000D03*
X256250Y120000D03*
X259842Y137795D03*
G54D15*
X-33944Y88924D03*
X-24496Y153230D03*
X-21401Y198671D03*
X-8310Y129860D03*
X36033Y8569D03*
X30827Y166230D03*
Y176230D03*
Y196230D03*
X58714Y153230D03*
X61907Y57483D03*
X76427Y-103273D03*
X71631Y84003D03*
X79505D03*
X76714Y153230D03*
X79809Y198671D03*
X81474Y-12526D03*
Y5474D03*
Y38837D03*
X97379D03*
X93391Y47837D03*
X99072Y63389D03*
X97379Y84003D03*
X102210Y177410D03*
X112454Y-51120D03*
Y-38620D03*
Y-30620D03*
Y-18120D03*
X121669Y104090D03*
X121770Y194447D03*
X129770Y182410D03*
X143228Y-122514D03*
X137669Y111176D03*
X153543Y0D03*
Y19685D03*
Y31496D03*
X145669Y27559D03*
Y51181D03*
Y62992D03*
X153543Y70866D03*
X145669Y78740D03*
X149606Y82677D03*
X165354Y39370D03*
X161417Y35433D03*
X165354Y47244D03*
X161417D03*
X165354Y55118D03*
Y62992D03*
X161417Y59055D03*
Y66929D03*
X157480Y98425D03*
X169291Y19685D03*
X173228D03*
Y39370D03*
X169291Y35433D03*
X173228Y43307D03*
X169291D03*
X173228Y59055D03*
X169291D03*
X173228Y62992D03*
X169291Y66929D03*
Y82677D03*
X182685Y-37514D03*
X177165Y0D03*
X181102Y19685D03*
Y35433D03*
X185039D03*
X181102Y43307D03*
X185039Y47244D03*
Y62992D03*
Y55118D03*
X181102Y59055D03*
Y62992D03*
X185039Y82677D03*
X196850Y0D03*
Y19685D03*
X188976Y35433D03*
X192913D03*
Y43307D03*
X188976D03*
X192913Y59055D03*
X188976Y55118D03*
X192913Y66929D03*
X188976D03*
Y82677D03*
X192913Y98425D03*
X191477Y177273D03*
Y169273D03*
X200787Y31496D03*
Y70866D03*
X213580Y-108120D03*
X210511Y-61514D03*
X208661Y35433D03*
Y51181D03*
Y43307D03*
Y62992D03*
Y82677D03*
X219470Y-61514D03*
X225990Y136670D03*
X234990D03*
X245590Y57961D03*
Y79835D03*
X243990Y136670D03*
X252938Y-118040D03*
X258740Y155481D03*
X253740D03*
X258740Y179890D03*
X253740D03*
X258740Y199990D03*
X260938Y-118040D03*
X263740Y155481D03*
Y179890D03*
M02*
