G04 ================== begin FILE IDENTIFICATION RECORD ==================*
G04 Layout Name:  E:/diansai/Monika1/monika_pcb4/monika.brd*
G04 Film Name:    SOLDERMASK_BOTTM*
G04 File Format:  Gerber RS274X*
G04 File Origin:  Cadence Allegro 16.6-2015-S108*
G04 Origin Date:  Tue May 04 15:16:23 2021*
G04 *
G04 Layer:  VIA CLASS/SOLDERMASK_BOTTOM*
G04 Layer:  PIN/SOLDERMASK_BOTTOM*
G04 Layer:  PACKAGE GEOMETRY/SOLDERMASK_BOTTOM*
G04 Layer:  BOARD GEOMETRY/SOLDERMASK_BOTTOM*
G04 *
G04 Offset:    (0.000 0.000)*
G04 Mirror:    No*
G04 Mode:      Positive*
G04 Rotation:  0*
G04 FullContactRelief:  No*
G04 UndefLineWidth:     6.000*
G04 ================== end FILE IDENTIFICATION RECORD ====================*
%FSLAX25Y25*MOIN*%
%IR0*IPPOS*OFA0.00000B0.00000*MIA0B0*SFA1.00000B1.00000*%
%ADD11C,.136*%
%ADD19C,.23622*%
%ADD10C,.023622*%
%ADD17R,.022441X.025197*%
%ADD14R,.033465X.037402*%
%ADD15R,.037402X.033465*%
%ADD18O,.041339X.080709*%
%ADD12C,.062992*%
%ADD16C,.019685*%
%ADD13R,.062992X.062992*%
%LPD*%
G75*
G54D10*
X-56000Y56000D03*
Y72000D03*
Y220000D03*
X-52000Y40000D03*
Y88000D03*
Y160000D03*
Y168000D03*
Y176000D03*
Y184000D03*
X-36000Y40000D03*
X-40000Y96000D03*
X-44000Y168000D03*
Y160000D03*
X-40000Y220000D03*
X-24000Y96000D03*
Y160000D03*
Y168000D03*
Y220000D03*
X-20000Y40000D03*
X-16000Y168000D03*
Y176000D03*
Y184000D03*
X-8000Y96000D03*
Y220000D03*
X8000Y96000D03*
Y220000D03*
X12000Y40000D03*
X28000D03*
X24000Y96000D03*
Y220000D03*
X44000Y40000D03*
X40000Y84000D03*
Y96000D03*
X48000Y160000D03*
X40000Y220000D03*
X56000Y8000D03*
Y40000D03*
Y160000D03*
Y220000D03*
X64000Y-16000D03*
Y8000D03*
Y44000D03*
Y100000D03*
X80000Y-128000D03*
X76000Y-120000D03*
X72000Y-112000D03*
X80000D03*
X72000Y-16000D03*
Y8000D03*
Y100000D03*
X80000D03*
Y160000D03*
X72000Y220000D03*
X88000Y-136000D03*
Y-108000D03*
Y-68000D03*
Y88000D03*
Y96000D03*
Y160000D03*
Y220000D03*
X96000Y-136000D03*
Y-108000D03*
Y-68000D03*
X104000Y-132000D03*
X108000Y-116000D03*
Y-124000D03*
X104000Y-108000D03*
X108000Y-100000D03*
X104000Y-68000D03*
Y220000D03*
X116000Y-68000D03*
X120000Y220000D03*
X140000Y-64000D03*
Y-56000D03*
Y-48000D03*
X144000Y-40000D03*
X136000Y220000D03*
X148000Y-68000D03*
X152000Y-32000D03*
Y220000D03*
X156000Y-68000D03*
X176000Y168000D03*
Y176000D03*
Y184000D03*
Y204000D03*
Y212000D03*
X168000Y220000D03*
X192000Y-68000D03*
Y152000D03*
Y160000D03*
Y200000D03*
X200000Y-68000D03*
Y-24000D03*
Y152000D03*
X204000Y164000D03*
X200000Y160000D03*
X204000Y172000D03*
Y188000D03*
Y180000D03*
X200000Y224000D03*
X216000Y152000D03*
X208000D03*
X216000Y216000D03*
X208000D03*
X216000Y224000D03*
X208000D03*
X224000Y152000D03*
Y160000D03*
Y168000D03*
Y176000D03*
Y216000D03*
Y224000D03*
X236000Y152000D03*
X232000Y216000D03*
Y224000D03*
X240000Y-148000D03*
Y-140000D03*
X248000D03*
X240000Y-132000D03*
X248000D03*
X240000Y-116000D03*
Y-124000D03*
X248000D03*
X240000Y-108000D03*
X248000Y-104000D03*
X244000Y152000D03*
Y168000D03*
Y160000D03*
Y176000D03*
Y184000D03*
X248000Y216000D03*
Y224000D03*
X260000Y-148000D03*
Y-140000D03*
X256000Y-124000D03*
Y-104000D03*
X260000Y168000D03*
X252000D03*
X256000Y208000D03*
Y216000D03*
Y224000D03*
X264000Y-124000D03*
Y-104000D03*
Y208000D03*
Y216000D03*
Y224000D03*
X280000Y-148000D03*
X272000Y-124000D03*
Y-104000D03*
Y112000D03*
Y136000D03*
Y152000D03*
Y168000D03*
Y184000D03*
Y192000D03*
Y200000D03*
Y208000D03*
Y216000D03*
Y224000D03*
X284000Y-140000D03*
X288000Y-124000D03*
Y112000D03*
Y136000D03*
Y152000D03*
Y168000D03*
Y184000D03*
Y200000D03*
Y216000D03*
X296000Y-148000D03*
Y-140000D03*
Y-132000D03*
Y-124000D03*
G54D11*
X-44310Y-134560D03*
Y120000D03*
X210250Y-134560D03*
Y120000D03*
G54D12*
X-41030Y56420D03*
X-22000Y-130000D03*
X-8310Y120000D03*
X1690D03*
X3740Y156230D03*
Y166230D03*
Y176230D03*
Y186230D03*
Y196230D03*
X11690Y120000D03*
X13740Y166230D03*
Y176230D03*
Y186230D03*
Y196230D03*
X70000Y120000D03*
X80000D03*
X90000D03*
X100000D03*
X114137Y-120341D03*
Y-110341D03*
Y-100341D03*
X110000Y120000D03*
X173297Y-128050D03*
X232000Y-130000D03*
X246250Y120000D03*
X256250D03*
X266250D03*
X302000Y-76273D03*
Y-66273D03*
Y-56273D03*
Y-46273D03*
Y-36273D03*
Y-26273D03*
Y-16273D03*
Y-6273D03*
Y3727D03*
Y23727D03*
Y13727D03*
Y33727D03*
Y43727D03*
Y53727D03*
Y63727D03*
Y73727D03*
Y83727D03*
Y93727D03*
Y103727D03*
Y113727D03*
X312000Y-66273D03*
Y-56273D03*
Y-46273D03*
Y-36273D03*
Y-26273D03*
Y-16273D03*
Y-6273D03*
Y3727D03*
Y23727D03*
Y13727D03*
Y33727D03*
Y43727D03*
Y53727D03*
Y63727D03*
Y73727D03*
Y83727D03*
Y93727D03*
Y103727D03*
Y113727D03*
G54D13*
X-41030Y66420D03*
X-22000Y-140000D03*
X-18310Y120000D03*
X-11811Y157480D03*
X13740Y156230D03*
X60000Y120000D03*
X82677Y-35433D03*
X118110Y157480D03*
X183297Y-128050D03*
X232000Y-140000D03*
X236250Y120000D03*
X259842Y137795D03*
X312000Y-76273D03*
G54D14*
X-16353Y57877D03*
Y64963D03*
X-8353Y57877D03*
Y64963D03*
X-353Y57877D03*
Y64963D03*
X81474Y31751D03*
Y38837D03*
X71631Y84003D03*
X79505D03*
X71631Y91089D03*
X79505D03*
X97379Y31751D03*
Y38837D03*
Y84003D03*
Y91089D03*
X121669Y104090D03*
Y111176D03*
X129669Y104090D03*
Y111176D03*
X137669Y104090D03*
Y111176D03*
X145669Y104090D03*
Y111176D03*
X161598Y-37514D03*
Y-30427D03*
X182685Y-37514D03*
Y-30427D03*
G54D15*
X23740Y166230D03*
Y196230D03*
X30827Y166230D03*
Y196230D03*
X112454Y-51120D03*
Y-38620D03*
Y-30620D03*
Y-18120D03*
Y-7120D03*
Y3880D03*
X123055Y-131710D03*
X119540Y-51120D03*
Y-38620D03*
Y-30620D03*
Y-18120D03*
Y-7120D03*
Y3880D03*
X130141Y-131710D03*
X144228D03*
X137141D03*
X175685Y-44427D03*
X168598D03*
X175685Y-37427D03*
X168598D03*
X175685Y-30427D03*
X168598D03*
X175685Y-23424D03*
X168598D03*
X191477Y169273D03*
Y177273D03*
Y185273D03*
X198563Y169273D03*
Y177273D03*
Y185273D03*
X213580Y-108120D03*
X220666D03*
X238504Y57961D03*
Y64960D03*
Y72834D03*
Y79835D03*
X245590Y57961D03*
Y64960D03*
Y72834D03*
Y79835D03*
G54D16*
X80490Y56920D03*
X75990D03*
X80490Y61420D03*
X75990D03*
X80490Y65920D03*
X75990D03*
X84990Y56920D03*
Y61420D03*
Y65920D03*
X223140Y198990D03*
X219140D03*
Y205990D03*
Y202490D03*
X223140Y205990D03*
Y202490D03*
X234949Y167990D03*
Y163390D03*
Y172590D03*
X258740Y155481D03*
X253740D03*
X258740Y179890D03*
X253740D03*
X263740Y155481D03*
Y179890D03*
G54D17*
X153543Y15748D03*
Y19685D03*
Y27559D03*
Y31496D03*
X145669Y23622D03*
Y27559D03*
Y47244D03*
Y51181D03*
Y59055D03*
Y62992D03*
X153543Y70866D03*
Y74803D03*
X149606Y82677D03*
X145669Y74803D03*
Y78740D03*
X149606Y86614D03*
X157480Y31496D03*
Y27559D03*
X161417Y39370D03*
Y35433D03*
Y43307D03*
Y47244D03*
Y62992D03*
Y55118D03*
Y59055D03*
Y66929D03*
X157480Y70866D03*
Y74803D03*
X169291Y15748D03*
Y19685D03*
X173228D03*
Y31496D03*
Y27559D03*
Y23622D03*
X165354Y35433D03*
Y39370D03*
X169291D03*
Y35433D03*
X173228D03*
Y39370D03*
X165354Y43307D03*
Y47244D03*
X169291D03*
Y43307D03*
X173228Y47244D03*
Y43307D03*
X165354Y62992D03*
X169291D03*
X173228D03*
Y55118D03*
Y59055D03*
X169291Y55118D03*
Y59055D03*
X165354D03*
Y55118D03*
Y66929D03*
X169291D03*
X173228D03*
X169291Y82677D03*
X173228D03*
X169291Y86614D03*
X173228D03*
X181102Y15748D03*
Y19685D03*
X185039D03*
Y15748D03*
X181102Y27559D03*
Y23622D03*
X177165Y27559D03*
Y23622D03*
X181102Y39370D03*
Y35433D03*
X185039Y39370D03*
Y35433D03*
Y43307D03*
Y47244D03*
X181102D03*
Y43307D03*
Y62992D03*
X185039D03*
X181102Y55118D03*
Y59055D03*
X185039D03*
Y55118D03*
X181102Y66929D03*
X185039D03*
Y82677D03*
Y74803D03*
Y78740D03*
Y86614D03*
X192913Y39370D03*
Y35433D03*
X188976Y39370D03*
Y35433D03*
Y47244D03*
Y43307D03*
X192913Y47244D03*
Y43307D03*
Y62992D03*
X188976D03*
Y59055D03*
Y55118D03*
X192913D03*
Y59055D03*
Y66929D03*
X188976D03*
Y78740D03*
Y82677D03*
X196850Y15748D03*
Y19685D03*
X200787Y27559D03*
Y31496D03*
X196850D03*
Y27559D03*
X200787Y70866D03*
X196850D03*
X200787Y74803D03*
X196850D03*
X208661Y31496D03*
Y39370D03*
Y35433D03*
Y47244D03*
Y51181D03*
Y43307D03*
Y59055D03*
Y62992D03*
Y82677D03*
Y86614D03*
X269485Y-147977D03*
Y-144040D03*
X273422Y-147977D03*
Y-144040D03*
G54D18*
X254426Y-147607D03*
Y-133040D03*
X288481Y-147607D03*
Y-133040D03*
G54D19*
X307000Y-95446D03*
Y132900D03*
M02*
